ISO-10303-21;
HEADER;
/* Generated by software containing ST-Developer
 * from STEP Tools, Inc. (www.steptools.com) 
 */

FILE_DESCRIPTION(
/* description */ (''),
/* implementation_level */ '2;1');

FILE_NAME(
/* name */ 'bottam.step',
/* time_stamp */ '2026-09-22T18:39:04+05:30',
/* author */ (''),
/* organization */ (''),
/* preprocessor_version */ 'ST-DEVELOPER v20.2',
/* originating_system */ 'Autodesk Translation Framework v15.15.0.0',
/* authorisation */ '');

FILE_SCHEMA (('AUTOMOTIVE_DESIGN { 1 0 10303 214 3 1 1 }'));
ENDSEC;

DATA;
#10=MECHANICAL_DESIGN_GEOMETRIC_PRESENTATION_REPRESENTATION('',(#13,#14),
#782);
#11=SHAPE_REPRESENTATION_RELATIONSHIP('SRR','None',#789,#12);
#12=ADVANCED_BREP_SHAPE_REPRESENTATION('',(#15,#16),#781);
#13=STYLED_ITEM('',(#798),#15);
#14=STYLED_ITEM('',(#798),#16);
#15=MANIFOLD_SOLID_BREP('Body1',#473);
#16=MANIFOLD_SOLID_BREP('Body3',#474);
#17=FACE_BOUND('',#84,.T.);
#18=FACE_BOUND('',#85,.T.);
#19=FACE_BOUND('',#86,.T.);
#20=FACE_BOUND('',#87,.T.);
#21=FACE_BOUND('',#89,.T.);
#22=FACE_BOUND('',#90,.T.);
#23=FACE_BOUND('',#91,.T.);
#24=FACE_BOUND('',#92,.T.);
#25=FACE_BOUND('',#106,.T.);
#26=FACE_BOUND('',#107,.T.);
#27=FACE_BOUND('',#108,.T.);
#28=FACE_BOUND('',#109,.T.);
#29=FACE_BOUND('',#110,.T.);
#30=FACE_BOUND('',#112,.T.);
#31=FACE_BOUND('',#113,.T.);
#32=FACE_BOUND('',#114,.T.);
#33=FACE_BOUND('',#115,.T.);
#34=FACE_BOUND('',#116,.T.);
#35=PLANE('',#500);
#36=PLANE('',#501);
#37=PLANE('',#502);
#38=PLANE('',#503);
#39=PLANE('',#504);
#40=PLANE('',#505);
#41=PLANE('',#512);
#42=PLANE('',#513);
#43=PLANE('',#514);
#44=PLANE('',#515);
#45=PLANE('',#522);
#46=PLANE('',#523);
#47=PLANE('',#524);
#48=PLANE('',#525);
#49=PLANE('',#526);
#50=PLANE('',#527);
#51=FACE_OUTER_BOUND('',#75,.T.);
#52=FACE_OUTER_BOUND('',#76,.T.);
#53=FACE_OUTER_BOUND('',#77,.T.);
#54=FACE_OUTER_BOUND('',#78,.T.);
#55=FACE_OUTER_BOUND('',#79,.T.);
#56=FACE_OUTER_BOUND('',#80,.T.);
#57=FACE_OUTER_BOUND('',#81,.T.);
#58=FACE_OUTER_BOUND('',#82,.T.);
#59=FACE_OUTER_BOUND('',#83,.T.);
#60=FACE_OUTER_BOUND('',#88,.T.);
#61=FACE_OUTER_BOUND('',#93,.T.);
#62=FACE_OUTER_BOUND('',#94,.T.);
#63=FACE_OUTER_BOUND('',#95,.T.);
#64=FACE_OUTER_BOUND('',#96,.T.);
#65=FACE_OUTER_BOUND('',#97,.T.);
#66=FACE_OUTER_BOUND('',#98,.T.);
#67=FACE_OUTER_BOUND('',#99,.T.);
#68=FACE_OUTER_BOUND('',#100,.T.);
#69=FACE_OUTER_BOUND('',#101,.T.);
#70=FACE_OUTER_BOUND('',#102,.T.);
#71=FACE_OUTER_BOUND('',#103,.T.);
#72=FACE_OUTER_BOUND('',#104,.T.);
#73=FACE_OUTER_BOUND('',#105,.T.);
#74=FACE_OUTER_BOUND('',#111,.T.);
#75=EDGE_LOOP('',(#321,#322,#323,#324));
#76=EDGE_LOOP('',(#325,#326,#327,#328));
#77=EDGE_LOOP('',(#329,#330,#331,#332));
#78=EDGE_LOOP('',(#333,#334,#335,#336));
#79=EDGE_LOOP('',(#337,#338,#339,#340));
#80=EDGE_LOOP('',(#341,#342,#343,#344));
#81=EDGE_LOOP('',(#345,#346,#347,#348));
#82=EDGE_LOOP('',(#349,#350,#351,#352));
#83=EDGE_LOOP('',(#353,#354,#355,#356));
#84=EDGE_LOOP('',(#357));
#85=EDGE_LOOP('',(#358));
#86=EDGE_LOOP('',(#359));
#87=EDGE_LOOP('',(#360));
#88=EDGE_LOOP('',(#361,#362,#363,#364));
#89=EDGE_LOOP('',(#365));
#90=EDGE_LOOP('',(#366));
#91=EDGE_LOOP('',(#367));
#92=EDGE_LOOP('',(#368));
#93=EDGE_LOOP('',(#369,#370,#371,#372));
#94=EDGE_LOOP('',(#373,#374,#375,#376));
#95=EDGE_LOOP('',(#377,#378,#379,#380));
#96=EDGE_LOOP('',(#381,#382,#383,#384));
#97=EDGE_LOOP('',(#385,#386,#387,#388));
#98=EDGE_LOOP('',(#389,#390,#391,#392));
#99=EDGE_LOOP('',(#393,#394,#395,#396));
#100=EDGE_LOOP('',(#397,#398,#399,#400));
#101=EDGE_LOOP('',(#401,#402,#403,#404));
#102=EDGE_LOOP('',(#405,#406,#407,#408));
#103=EDGE_LOOP('',(#409,#410,#411,#412));
#104=EDGE_LOOP('',(#413,#414,#415,#416));
#105=EDGE_LOOP('',(#417,#418,#419,#420));
#106=EDGE_LOOP('',(#421));
#107=EDGE_LOOP('',(#422));
#108=EDGE_LOOP('',(#423,#424,#425,#426));
#109=EDGE_LOOP('',(#427));
#110=EDGE_LOOP('',(#428));
#111=EDGE_LOOP('',(#429,#430,#431,#432));
#112=EDGE_LOOP('',(#433));
#113=EDGE_LOOP('',(#434));
#114=EDGE_LOOP('',(#435,#436,#437,#438));
#115=EDGE_LOOP('',(#439));
#116=EDGE_LOOP('',(#440));
#117=LINE('',#659,#161);
#118=LINE('',#665,#162);
#119=LINE('',#671,#163);
#120=LINE('',#677,#164);
#121=LINE('',#682,#165);
#122=LINE('',#684,#166);
#123=LINE('',#686,#167);
#124=LINE('',#687,#168);
#125=LINE('',#690,#169);
#126=LINE('',#692,#170);
#127=LINE('',#693,#171);
#128=LINE('',#696,#172);
#129=LINE('',#698,#173);
#130=LINE('',#699,#174);
#131=LINE('',#701,#175);
#132=LINE('',#702,#176);
#133=LINE('',#709,#177);
#134=LINE('',#715,#178);
#135=LINE('',#720,#179);
#136=LINE('',#722,#180);
#137=LINE('',#724,#181);
#138=LINE('',#725,#182);
#139=LINE('',#728,#183);
#140=LINE('',#730,#184);
#141=LINE('',#731,#185);
#142=LINE('',#734,#186);
#143=LINE('',#736,#187);
#144=LINE('',#737,#188);
#145=LINE('',#739,#189);
#146=LINE('',#740,#190);
#147=LINE('',#745,#191);
#148=LINE('',#751,#192);
#149=LINE('',#756,#193);
#150=LINE('',#758,#194);
#151=LINE('',#760,#195);
#152=LINE('',#761,#196);
#153=LINE('',#764,#197);
#154=LINE('',#766,#198);
#155=LINE('',#767,#199);
#156=LINE('',#770,#200);
#157=LINE('',#772,#201);
#158=LINE('',#773,#202);
#159=LINE('',#775,#203);
#160=LINE('',#776,#204);
#161=VECTOR('',#534,1.45);
#162=VECTOR('',#541,1.45);
#163=VECTOR('',#548,1.45);
#164=VECTOR('',#555,1.45);
#165=VECTOR('',#560,10.);
#166=VECTOR('',#561,10.);
#167=VECTOR('',#562,10.);
#168=VECTOR('',#563,10.);
#169=VECTOR('',#566,10.);
#170=VECTOR('',#567,10.);
#171=VECTOR('',#568,10.);
#172=VECTOR('',#571,10.);
#173=VECTOR('',#572,10.);
#174=VECTOR('',#573,10.);
#175=VECTOR('',#576,10.);
#176=VECTOR('',#577,10.);
#177=VECTOR('',#586,1.45);
#178=VECTOR('',#593,1.45);
#179=VECTOR('',#598,10.);
#180=VECTOR('',#599,10.);
#181=VECTOR('',#600,10.);
#182=VECTOR('',#601,10.);
#183=VECTOR('',#604,10.);
#184=VECTOR('',#605,10.);
#185=VECTOR('',#606,10.);
#186=VECTOR('',#609,10.);
#187=VECTOR('',#610,10.);
#188=VECTOR('',#611,10.);
#189=VECTOR('',#614,10.);
#190=VECTOR('',#615,10.);
#191=VECTOR('',#620,1.45);
#192=VECTOR('',#627,1.45);
#193=VECTOR('',#632,10.);
#194=VECTOR('',#633,10.);
#195=VECTOR('',#634,10.);
#196=VECTOR('',#635,10.);
#197=VECTOR('',#638,10.);
#198=VECTOR('',#639,10.);
#199=VECTOR('',#640,10.);
#200=VECTOR('',#643,10.);
#201=VECTOR('',#644,10.);
#202=VECTOR('',#645,10.);
#203=VECTOR('',#648,10.);
#204=VECTOR('',#649,10.);
#205=CIRCLE('',#489,1.45);
#206=CIRCLE('',#490,1.45);
#207=CIRCLE('',#492,1.45);
#208=CIRCLE('',#493,1.45);
#209=CIRCLE('',#495,1.45);
#210=CIRCLE('',#496,1.45);
#211=CIRCLE('',#498,1.45);
#212=CIRCLE('',#499,1.45);
#213=CIRCLE('',#507,1.45);
#214=CIRCLE('',#508,1.45);
#215=CIRCLE('',#510,1.45);
#216=CIRCLE('',#511,1.45);
#217=CIRCLE('',#517,1.45);
#218=CIRCLE('',#518,1.45);
#219=CIRCLE('',#520,1.45);
#220=CIRCLE('',#521,1.45);
#221=VERTEX_POINT('',#656);
#222=VERTEX_POINT('',#658);
#223=VERTEX_POINT('',#662);
#224=VERTEX_POINT('',#664);
#225=VERTEX_POINT('',#668);
#226=VERTEX_POINT('',#670);
#227=VERTEX_POINT('',#674);
#228=VERTEX_POINT('',#676);
#229=VERTEX_POINT('',#680);
#230=VERTEX_POINT('',#681);
#231=VERTEX_POINT('',#683);
#232=VERTEX_POINT('',#685);
#233=VERTEX_POINT('',#689);
#234=VERTEX_POINT('',#691);
#235=VERTEX_POINT('',#695);
#236=VERTEX_POINT('',#697);
#237=VERTEX_POINT('',#706);
#238=VERTEX_POINT('',#708);
#239=VERTEX_POINT('',#712);
#240=VERTEX_POINT('',#714);
#241=VERTEX_POINT('',#718);
#242=VERTEX_POINT('',#719);
#243=VERTEX_POINT('',#721);
#244=VERTEX_POINT('',#723);
#245=VERTEX_POINT('',#727);
#246=VERTEX_POINT('',#729);
#247=VERTEX_POINT('',#733);
#248=VERTEX_POINT('',#735);
#249=VERTEX_POINT('',#742);
#250=VERTEX_POINT('',#744);
#251=VERTEX_POINT('',#748);
#252=VERTEX_POINT('',#750);
#253=VERTEX_POINT('',#754);
#254=VERTEX_POINT('',#755);
#255=VERTEX_POINT('',#757);
#256=VERTEX_POINT('',#759);
#257=VERTEX_POINT('',#763);
#258=VERTEX_POINT('',#765);
#259=VERTEX_POINT('',#769);
#260=VERTEX_POINT('',#771);
#261=EDGE_CURVE('',#221,#221,#205,.T.);
#262=EDGE_CURVE('',#221,#222,#117,.T.);
#263=EDGE_CURVE('',#222,#222,#206,.T.);
#264=EDGE_CURVE('',#223,#223,#207,.T.);
#265=EDGE_CURVE('',#223,#224,#118,.T.);
#266=EDGE_CURVE('',#224,#224,#208,.T.);
#267=EDGE_CURVE('',#225,#225,#209,.T.);
#268=EDGE_CURVE('',#225,#226,#119,.T.);
#269=EDGE_CURVE('',#226,#226,#210,.T.);
#270=EDGE_CURVE('',#227,#227,#211,.T.);
#271=EDGE_CURVE('',#227,#228,#120,.T.);
#272=EDGE_CURVE('',#228,#228,#212,.T.);
#273=EDGE_CURVE('',#229,#230,#121,.T.);
#274=EDGE_CURVE('',#229,#231,#122,.T.);
#275=EDGE_CURVE('',#232,#231,#123,.T.);
#276=EDGE_CURVE('',#230,#232,#124,.T.);
#277=EDGE_CURVE('',#230,#233,#125,.T.);
#278=EDGE_CURVE('',#234,#232,#126,.T.);
#279=EDGE_CURVE('',#233,#234,#127,.T.);
#280=EDGE_CURVE('',#233,#235,#128,.T.);
#281=EDGE_CURVE('',#236,#234,#129,.T.);
#282=EDGE_CURVE('',#235,#236,#130,.T.);
#283=EDGE_CURVE('',#235,#229,#131,.T.);
#284=EDGE_CURVE('',#231,#236,#132,.T.);
#285=EDGE_CURVE('',#237,#237,#213,.T.);
#286=EDGE_CURVE('',#237,#238,#133,.T.);
#287=EDGE_CURVE('',#238,#238,#214,.T.);
#288=EDGE_CURVE('',#239,#239,#215,.T.);
#289=EDGE_CURVE('',#239,#240,#134,.T.);
#290=EDGE_CURVE('',#240,#240,#216,.T.);
#291=EDGE_CURVE('',#241,#242,#135,.T.);
#292=EDGE_CURVE('',#242,#243,#136,.T.);
#293=EDGE_CURVE('',#244,#243,#137,.T.);
#294=EDGE_CURVE('',#241,#244,#138,.T.);
#295=EDGE_CURVE('',#245,#241,#139,.T.);
#296=EDGE_CURVE('',#246,#244,#140,.T.);
#297=EDGE_CURVE('',#245,#246,#141,.T.);
#298=EDGE_CURVE('',#247,#245,#142,.T.);
#299=EDGE_CURVE('',#248,#246,#143,.T.);
#300=EDGE_CURVE('',#247,#248,#144,.T.);
#301=EDGE_CURVE('',#242,#247,#145,.T.);
#302=EDGE_CURVE('',#243,#248,#146,.T.);
#303=EDGE_CURVE('',#249,#249,#217,.T.);
#304=EDGE_CURVE('',#249,#250,#147,.T.);
#305=EDGE_CURVE('',#250,#250,#218,.T.);
#306=EDGE_CURVE('',#251,#251,#219,.T.);
#307=EDGE_CURVE('',#251,#252,#148,.T.);
#308=EDGE_CURVE('',#252,#252,#220,.T.);
#309=EDGE_CURVE('',#253,#254,#149,.T.);
#310=EDGE_CURVE('',#253,#255,#150,.T.);
#311=EDGE_CURVE('',#256,#255,#151,.T.);
#312=EDGE_CURVE('',#254,#256,#152,.T.);
#313=EDGE_CURVE('',#254,#257,#153,.T.);
#314=EDGE_CURVE('',#258,#256,#154,.T.);
#315=EDGE_CURVE('',#257,#258,#155,.T.);
#316=EDGE_CURVE('',#257,#259,#156,.T.);
#317=EDGE_CURVE('',#260,#258,#157,.T.);
#318=EDGE_CURVE('',#259,#260,#158,.T.);
#319=EDGE_CURVE('',#259,#253,#159,.T.);
#320=EDGE_CURVE('',#255,#260,#160,.T.);
#321=ORIENTED_EDGE('',*,*,#261,.F.);
#322=ORIENTED_EDGE('',*,*,#262,.T.);
#323=ORIENTED_EDGE('',*,*,#263,.T.);
#324=ORIENTED_EDGE('',*,*,#262,.F.);
#325=ORIENTED_EDGE('',*,*,#264,.F.);
#326=ORIENTED_EDGE('',*,*,#265,.T.);
#327=ORIENTED_EDGE('',*,*,#266,.T.);
#328=ORIENTED_EDGE('',*,*,#265,.F.);
#329=ORIENTED_EDGE('',*,*,#267,.F.);
#330=ORIENTED_EDGE('',*,*,#268,.T.);
#331=ORIENTED_EDGE('',*,*,#269,.T.);
#332=ORIENTED_EDGE('',*,*,#268,.F.);
#333=ORIENTED_EDGE('',*,*,#270,.F.);
#334=ORIENTED_EDGE('',*,*,#271,.T.);
#335=ORIENTED_EDGE('',*,*,#272,.T.);
#336=ORIENTED_EDGE('',*,*,#271,.F.);
#337=ORIENTED_EDGE('',*,*,#273,.F.);
#338=ORIENTED_EDGE('',*,*,#274,.T.);
#339=ORIENTED_EDGE('',*,*,#275,.F.);
#340=ORIENTED_EDGE('',*,*,#276,.F.);
#341=ORIENTED_EDGE('',*,*,#277,.F.);
#342=ORIENTED_EDGE('',*,*,#276,.T.);
#343=ORIENTED_EDGE('',*,*,#278,.F.);
#344=ORIENTED_EDGE('',*,*,#279,.F.);
#345=ORIENTED_EDGE('',*,*,#280,.F.);
#346=ORIENTED_EDGE('',*,*,#279,.T.);
#347=ORIENTED_EDGE('',*,*,#281,.F.);
#348=ORIENTED_EDGE('',*,*,#282,.F.);
#349=ORIENTED_EDGE('',*,*,#283,.F.);
#350=ORIENTED_EDGE('',*,*,#282,.T.);
#351=ORIENTED_EDGE('',*,*,#284,.F.);
#352=ORIENTED_EDGE('',*,*,#274,.F.);
#353=ORIENTED_EDGE('',*,*,#284,.T.);
#354=ORIENTED_EDGE('',*,*,#281,.T.);
#355=ORIENTED_EDGE('',*,*,#278,.T.);
#356=ORIENTED_EDGE('',*,*,#275,.T.);
#357=ORIENTED_EDGE('',*,*,#261,.T.);
#358=ORIENTED_EDGE('',*,*,#264,.T.);
#359=ORIENTED_EDGE('',*,*,#267,.T.);
#360=ORIENTED_EDGE('',*,*,#270,.T.);
#361=ORIENTED_EDGE('',*,*,#283,.T.);
#362=ORIENTED_EDGE('',*,*,#273,.T.);
#363=ORIENTED_EDGE('',*,*,#277,.T.);
#364=ORIENTED_EDGE('',*,*,#280,.T.);
#365=ORIENTED_EDGE('',*,*,#263,.F.);
#366=ORIENTED_EDGE('',*,*,#266,.F.);
#367=ORIENTED_EDGE('',*,*,#269,.F.);
#368=ORIENTED_EDGE('',*,*,#272,.F.);
#369=ORIENTED_EDGE('',*,*,#285,.F.);
#370=ORIENTED_EDGE('',*,*,#286,.T.);
#371=ORIENTED_EDGE('',*,*,#287,.T.);
#372=ORIENTED_EDGE('',*,*,#286,.F.);
#373=ORIENTED_EDGE('',*,*,#288,.F.);
#374=ORIENTED_EDGE('',*,*,#289,.T.);
#375=ORIENTED_EDGE('',*,*,#290,.T.);
#376=ORIENTED_EDGE('',*,*,#289,.F.);
#377=ORIENTED_EDGE('',*,*,#291,.T.);
#378=ORIENTED_EDGE('',*,*,#292,.T.);
#379=ORIENTED_EDGE('',*,*,#293,.F.);
#380=ORIENTED_EDGE('',*,*,#294,.F.);
#381=ORIENTED_EDGE('',*,*,#295,.T.);
#382=ORIENTED_EDGE('',*,*,#294,.T.);
#383=ORIENTED_EDGE('',*,*,#296,.F.);
#384=ORIENTED_EDGE('',*,*,#297,.F.);
#385=ORIENTED_EDGE('',*,*,#298,.T.);
#386=ORIENTED_EDGE('',*,*,#297,.T.);
#387=ORIENTED_EDGE('',*,*,#299,.F.);
#388=ORIENTED_EDGE('',*,*,#300,.F.);
#389=ORIENTED_EDGE('',*,*,#301,.T.);
#390=ORIENTED_EDGE('',*,*,#300,.T.);
#391=ORIENTED_EDGE('',*,*,#302,.F.);
#392=ORIENTED_EDGE('',*,*,#292,.F.);
#393=ORIENTED_EDGE('',*,*,#303,.F.);
#394=ORIENTED_EDGE('',*,*,#304,.T.);
#395=ORIENTED_EDGE('',*,*,#305,.T.);
#396=ORIENTED_EDGE('',*,*,#304,.F.);
#397=ORIENTED_EDGE('',*,*,#306,.F.);
#398=ORIENTED_EDGE('',*,*,#307,.T.);
#399=ORIENTED_EDGE('',*,*,#308,.T.);
#400=ORIENTED_EDGE('',*,*,#307,.F.);
#401=ORIENTED_EDGE('',*,*,#309,.F.);
#402=ORIENTED_EDGE('',*,*,#310,.T.);
#403=ORIENTED_EDGE('',*,*,#311,.F.);
#404=ORIENTED_EDGE('',*,*,#312,.F.);
#405=ORIENTED_EDGE('',*,*,#313,.F.);
#406=ORIENTED_EDGE('',*,*,#312,.T.);
#407=ORIENTED_EDGE('',*,*,#314,.F.);
#408=ORIENTED_EDGE('',*,*,#315,.F.);
#409=ORIENTED_EDGE('',*,*,#316,.F.);
#410=ORIENTED_EDGE('',*,*,#315,.T.);
#411=ORIENTED_EDGE('',*,*,#317,.F.);
#412=ORIENTED_EDGE('',*,*,#318,.F.);
#413=ORIENTED_EDGE('',*,*,#319,.F.);
#414=ORIENTED_EDGE('',*,*,#318,.T.);
#415=ORIENTED_EDGE('',*,*,#320,.F.);
#416=ORIENTED_EDGE('',*,*,#310,.F.);
#417=ORIENTED_EDGE('',*,*,#320,.T.);
#418=ORIENTED_EDGE('',*,*,#317,.T.);
#419=ORIENTED_EDGE('',*,*,#314,.T.);
#420=ORIENTED_EDGE('',*,*,#311,.T.);
#421=ORIENTED_EDGE('',*,*,#306,.T.);
#422=ORIENTED_EDGE('',*,*,#303,.T.);
#423=ORIENTED_EDGE('',*,*,#302,.T.);
#424=ORIENTED_EDGE('',*,*,#299,.T.);
#425=ORIENTED_EDGE('',*,*,#296,.T.);
#426=ORIENTED_EDGE('',*,*,#293,.T.);
#427=ORIENTED_EDGE('',*,*,#288,.T.);
#428=ORIENTED_EDGE('',*,*,#285,.T.);
#429=ORIENTED_EDGE('',*,*,#319,.T.);
#430=ORIENTED_EDGE('',*,*,#309,.T.);
#431=ORIENTED_EDGE('',*,*,#313,.T.);
#432=ORIENTED_EDGE('',*,*,#316,.T.);
#433=ORIENTED_EDGE('',*,*,#308,.F.);
#434=ORIENTED_EDGE('',*,*,#305,.F.);
#435=ORIENTED_EDGE('',*,*,#301,.F.);
#436=ORIENTED_EDGE('',*,*,#291,.F.);
#437=ORIENTED_EDGE('',*,*,#295,.F.);
#438=ORIENTED_EDGE('',*,*,#298,.F.);
#439=ORIENTED_EDGE('',*,*,#290,.F.);
#440=ORIENTED_EDGE('',*,*,#287,.F.);
#441=CYLINDRICAL_SURFACE('',#488,1.45);
#442=CYLINDRICAL_SURFACE('',#491,1.45);
#443=CYLINDRICAL_SURFACE('',#494,1.45);
#444=CYLINDRICAL_SURFACE('',#497,1.45);
#445=CYLINDRICAL_SURFACE('',#506,1.45);
#446=CYLINDRICAL_SURFACE('',#509,1.45);
#447=CYLINDRICAL_SURFACE('',#516,1.45);
#448=CYLINDRICAL_SURFACE('',#519,1.45);
#449=ADVANCED_FACE('',(#51),#441,.F.);
#450=ADVANCED_FACE('',(#52),#442,.F.);
#451=ADVANCED_FACE('',(#53),#443,.F.);
#452=ADVANCED_FACE('',(#54),#444,.F.);
#453=ADVANCED_FACE('',(#55),#35,.T.);
#454=ADVANCED_FACE('',(#56),#36,.T.);
#455=ADVANCED_FACE('',(#57),#37,.T.);
#456=ADVANCED_FACE('',(#58),#38,.T.);
#457=ADVANCED_FACE('',(#59,#17,#18,#19,#20),#39,.T.);
#458=ADVANCED_FACE('',(#60,#21,#22,#23,#24),#40,.F.);
#459=ADVANCED_FACE('',(#61),#445,.F.);
#460=ADVANCED_FACE('',(#62),#446,.F.);
#461=ADVANCED_FACE('',(#63),#41,.T.);
#462=ADVANCED_FACE('',(#64),#42,.T.);
#463=ADVANCED_FACE('',(#65),#43,.T.);
#464=ADVANCED_FACE('',(#66),#44,.T.);
#465=ADVANCED_FACE('',(#67),#447,.F.);
#466=ADVANCED_FACE('',(#68),#448,.F.);
#467=ADVANCED_FACE('',(#69),#45,.T.);
#468=ADVANCED_FACE('',(#70),#46,.T.);
#469=ADVANCED_FACE('',(#71),#47,.T.);
#470=ADVANCED_FACE('',(#72),#48,.T.);
#471=ADVANCED_FACE('',(#73,#25,#26,#27,#28,#29),#49,.T.);
#472=ADVANCED_FACE('',(#74,#30,#31,#32,#33,#34),#50,.F.);
#473=CLOSED_SHELL('',(#449,#450,#451,#452,#453,#454,#455,#456,#457,#458));
#474=CLOSED_SHELL('',(#459,#460,#461,#462,#463,#464,#465,#466,#467,#468,
#469,#470,#471,#472));
#475=DERIVED_UNIT_ELEMENT(#477,1.);
#476=DERIVED_UNIT_ELEMENT(#784,-3.);
#477=(
MASS_UNIT()
NAMED_UNIT(*)
SI_UNIT(.KILO.,.GRAM.)
);
#478=DERIVED_UNIT((#475,#476));
#479=MEASURE_REPRESENTATION_ITEM('density measure',
POSITIVE_RATIO_MEASURE(7850.),#478);
#480=PROPERTY_DEFINITION_REPRESENTATION(#485,#482);
#481=PROPERTY_DEFINITION_REPRESENTATION(#486,#483);
#482=REPRESENTATION('material name',(#484),#781);
#483=REPRESENTATION('density',(#479),#781);
#484=DESCRIPTIVE_REPRESENTATION_ITEM('Steel','Steel');
#485=PROPERTY_DEFINITION('material property','material name',#791);
#486=PROPERTY_DEFINITION('material property','density of part',#791);
#487=AXIS2_PLACEMENT_3D('',#654,#528,#529);
#488=AXIS2_PLACEMENT_3D('',#655,#530,#531);
#489=AXIS2_PLACEMENT_3D('',#657,#532,#533);
#490=AXIS2_PLACEMENT_3D('',#660,#535,#536);
#491=AXIS2_PLACEMENT_3D('',#661,#537,#538);
#492=AXIS2_PLACEMENT_3D('',#663,#539,#540);
#493=AXIS2_PLACEMENT_3D('',#666,#542,#543);
#494=AXIS2_PLACEMENT_3D('',#667,#544,#545);
#495=AXIS2_PLACEMENT_3D('',#669,#546,#547);
#496=AXIS2_PLACEMENT_3D('',#672,#549,#550);
#497=AXIS2_PLACEMENT_3D('',#673,#551,#552);
#498=AXIS2_PLACEMENT_3D('',#675,#553,#554);
#499=AXIS2_PLACEMENT_3D('',#678,#556,#557);
#500=AXIS2_PLACEMENT_3D('',#679,#558,#559);
#501=AXIS2_PLACEMENT_3D('',#688,#564,#565);
#502=AXIS2_PLACEMENT_3D('',#694,#569,#570);
#503=AXIS2_PLACEMENT_3D('',#700,#574,#575);
#504=AXIS2_PLACEMENT_3D('',#703,#578,#579);
#505=AXIS2_PLACEMENT_3D('',#704,#580,#581);
#506=AXIS2_PLACEMENT_3D('',#705,#582,#583);
#507=AXIS2_PLACEMENT_3D('',#707,#584,#585);
#508=AXIS2_PLACEMENT_3D('',#710,#587,#588);
#509=AXIS2_PLACEMENT_3D('',#711,#589,#590);
#510=AXIS2_PLACEMENT_3D('',#713,#591,#592);
#511=AXIS2_PLACEMENT_3D('',#716,#594,#595);
#512=AXIS2_PLACEMENT_3D('',#717,#596,#597);
#513=AXIS2_PLACEMENT_3D('',#726,#602,#603);
#514=AXIS2_PLACEMENT_3D('',#732,#607,#608);
#515=AXIS2_PLACEMENT_3D('',#738,#612,#613);
#516=AXIS2_PLACEMENT_3D('',#741,#616,#617);
#517=AXIS2_PLACEMENT_3D('',#743,#618,#619);
#518=AXIS2_PLACEMENT_3D('',#746,#621,#622);
#519=AXIS2_PLACEMENT_3D('',#747,#623,#624);
#520=AXIS2_PLACEMENT_3D('',#749,#625,#626);
#521=AXIS2_PLACEMENT_3D('',#752,#628,#629);
#522=AXIS2_PLACEMENT_3D('',#753,#630,#631);
#523=AXIS2_PLACEMENT_3D('',#762,#636,#637);
#524=AXIS2_PLACEMENT_3D('',#768,#641,#642);
#525=AXIS2_PLACEMENT_3D('',#774,#646,#647);
#526=AXIS2_PLACEMENT_3D('',#777,#650,#651);
#527=AXIS2_PLACEMENT_3D('',#778,#652,#653);
#528=DIRECTION('axis',(0.,0.,1.));
#529=DIRECTION('refdir',(1.,0.,0.));
#530=DIRECTION('center_axis',(0.,1.,0.));
#531=DIRECTION('ref_axis',(1.,0.,0.));
#532=DIRECTION('center_axis',(0.,-1.,0.));
#533=DIRECTION('ref_axis',(1.,0.,0.));
#534=DIRECTION('',(0.,-1.,0.));
#535=DIRECTION('center_axis',(0.,-1.,0.));
#536=DIRECTION('ref_axis',(1.,0.,0.));
#537=DIRECTION('center_axis',(0.,1.,0.));
#538=DIRECTION('ref_axis',(1.,0.,0.));
#539=DIRECTION('center_axis',(0.,-1.,0.));
#540=DIRECTION('ref_axis',(1.,0.,0.));
#541=DIRECTION('',(0.,-1.,0.));
#542=DIRECTION('center_axis',(0.,-1.,0.));
#543=DIRECTION('ref_axis',(1.,0.,0.));
#544=DIRECTION('center_axis',(0.,1.,0.));
#545=DIRECTION('ref_axis',(1.,0.,0.));
#546=DIRECTION('center_axis',(0.,-1.,0.));
#547=DIRECTION('ref_axis',(1.,0.,0.));
#548=DIRECTION('',(0.,-1.,0.));
#549=DIRECTION('center_axis',(0.,-1.,0.));
#550=DIRECTION('ref_axis',(1.,0.,0.));
#551=DIRECTION('center_axis',(0.,1.,0.));
#552=DIRECTION('ref_axis',(1.,0.,0.));
#553=DIRECTION('center_axis',(0.,-1.,0.));
#554=DIRECTION('ref_axis',(1.,0.,0.));
#555=DIRECTION('',(0.,-1.,0.));
#556=DIRECTION('center_axis',(0.,-1.,0.));
#557=DIRECTION('ref_axis',(1.,0.,0.));
#558=DIRECTION('center_axis',(0.,0.,1.));
#559=DIRECTION('ref_axis',(1.,0.,0.));
#560=DIRECTION('',(-1.,0.,0.));
#561=DIRECTION('',(0.,1.,0.));
#562=DIRECTION('',(1.,0.,0.));
#563=DIRECTION('',(0.,1.,0.));
#564=DIRECTION('center_axis',(-1.,0.,0.));
#565=DIRECTION('ref_axis',(0.,0.,1.));
#566=DIRECTION('',(0.,0.,-1.));
#567=DIRECTION('',(0.,0.,1.));
#568=DIRECTION('',(0.,1.,0.));
#569=DIRECTION('center_axis',(0.,0.,-1.));
#570=DIRECTION('ref_axis',(-1.,0.,0.));
#571=DIRECTION('',(1.,0.,0.));
#572=DIRECTION('',(-1.,0.,0.));
#573=DIRECTION('',(0.,1.,0.));
#574=DIRECTION('center_axis',(1.,0.,0.));
#575=DIRECTION('ref_axis',(0.,0.,-1.));
#576=DIRECTION('',(0.,0.,1.));
#577=DIRECTION('',(0.,0.,-1.));
#578=DIRECTION('center_axis',(0.,1.,0.));
#579=DIRECTION('ref_axis',(0.,0.,1.));
#580=DIRECTION('center_axis',(0.,1.,0.));
#581=DIRECTION('ref_axis',(1.,0.,0.));
#582=DIRECTION('center_axis',(0.,1.,0.));
#583=DIRECTION('ref_axis',(1.,0.,0.));
#584=DIRECTION('center_axis',(0.,-1.,0.));
#585=DIRECTION('ref_axis',(1.,0.,0.));
#586=DIRECTION('',(0.,-1.,0.));
#587=DIRECTION('center_axis',(0.,-1.,0.));
#588=DIRECTION('ref_axis',(1.,0.,0.));
#589=DIRECTION('center_axis',(0.,1.,0.));
#590=DIRECTION('ref_axis',(1.,0.,0.));
#591=DIRECTION('center_axis',(0.,-1.,0.));
#592=DIRECTION('ref_axis',(1.,0.,0.));
#593=DIRECTION('',(0.,-1.,0.));
#594=DIRECTION('center_axis',(0.,-1.,0.));
#595=DIRECTION('ref_axis',(1.,0.,0.));
#596=DIRECTION('center_axis',(-1.,0.,0.));
#597=DIRECTION('ref_axis',(0.,0.,1.));
#598=DIRECTION('',(0.,0.,1.));
#599=DIRECTION('',(0.,1.,0.));
#600=DIRECTION('',(0.,0.,1.));
#601=DIRECTION('',(0.,1.,0.));
#602=DIRECTION('center_axis',(0.,0.,1.));
#603=DIRECTION('ref_axis',(1.,0.,0.));
#604=DIRECTION('',(1.,0.,0.));
#605=DIRECTION('',(1.,0.,0.));
#606=DIRECTION('',(0.,1.,0.));
#607=DIRECTION('center_axis',(1.,0.,0.));
#608=DIRECTION('ref_axis',(0.,0.,-1.));
#609=DIRECTION('',(0.,0.,-1.));
#610=DIRECTION('',(0.,0.,-1.));
#611=DIRECTION('',(0.,1.,0.));
#612=DIRECTION('center_axis',(0.,0.,-1.));
#613=DIRECTION('ref_axis',(-1.,0.,0.));
#614=DIRECTION('',(-1.,0.,0.));
#615=DIRECTION('',(-1.,0.,0.));
#616=DIRECTION('center_axis',(0.,1.,0.));
#617=DIRECTION('ref_axis',(1.,0.,0.));
#618=DIRECTION('center_axis',(0.,-1.,0.));
#619=DIRECTION('ref_axis',(1.,0.,0.));
#620=DIRECTION('',(0.,-1.,0.));
#621=DIRECTION('center_axis',(0.,-1.,0.));
#622=DIRECTION('ref_axis',(1.,0.,0.));
#623=DIRECTION('center_axis',(0.,1.,0.));
#624=DIRECTION('ref_axis',(1.,0.,0.));
#625=DIRECTION('center_axis',(0.,-1.,0.));
#626=DIRECTION('ref_axis',(1.,0.,0.));
#627=DIRECTION('',(0.,-1.,0.));
#628=DIRECTION('center_axis',(0.,-1.,0.));
#629=DIRECTION('ref_axis',(1.,0.,0.));
#630=DIRECTION('center_axis',(0.,0.,1.));
#631=DIRECTION('ref_axis',(1.,0.,0.));
#632=DIRECTION('',(-1.,0.,0.));
#633=DIRECTION('',(0.,1.,0.));
#634=DIRECTION('',(1.,0.,0.));
#635=DIRECTION('',(0.,1.,0.));
#636=DIRECTION('center_axis',(-1.,0.,0.));
#637=DIRECTION('ref_axis',(0.,0.,1.));
#638=DIRECTION('',(0.,0.,-1.));
#639=DIRECTION('',(0.,0.,1.));
#640=DIRECTION('',(0.,1.,0.));
#641=DIRECTION('center_axis',(0.,0.,-1.));
#642=DIRECTION('ref_axis',(-1.,0.,0.));
#643=DIRECTION('',(1.,0.,0.));
#644=DIRECTION('',(-1.,0.,0.));
#645=DIRECTION('',(0.,1.,0.));
#646=DIRECTION('center_axis',(1.,0.,0.));
#647=DIRECTION('ref_axis',(0.,0.,-1.));
#648=DIRECTION('',(0.,0.,1.));
#649=DIRECTION('',(0.,0.,-1.));
#650=DIRECTION('center_axis',(0.,1.,0.));
#651=DIRECTION('ref_axis',(1.,0.,0.));
#652=DIRECTION('center_axis',(0.,1.,0.));
#653=DIRECTION('ref_axis',(1.,0.,0.));
#654=CARTESIAN_POINT('',(0.,0.,0.));
#655=CARTESIAN_POINT('Origin',(20.,0.,-45.));
#656=CARTESIAN_POINT('',(18.55,3.,-45.));
#657=CARTESIAN_POINT('Origin',(20.,3.,-45.));
#658=CARTESIAN_POINT('',(18.55,0.,-45.));
#659=CARTESIAN_POINT('',(18.55,0.,-45.));
#660=CARTESIAN_POINT('Origin',(20.,0.,-45.));
#661=CARTESIAN_POINT('Origin',(-90.,0.,-45.));
#662=CARTESIAN_POINT('',(-91.45,3.,-45.));
#663=CARTESIAN_POINT('Origin',(-90.,3.,-45.));
#664=CARTESIAN_POINT('',(-91.45,0.,-45.));
#665=CARTESIAN_POINT('',(-91.45,0.,-45.));
#666=CARTESIAN_POINT('Origin',(-90.,0.,-45.));
#667=CARTESIAN_POINT('Origin',(-90.,0.,40.));
#668=CARTESIAN_POINT('',(-91.45,3.,40.));
#669=CARTESIAN_POINT('Origin',(-90.,3.,40.));
#670=CARTESIAN_POINT('',(-91.45,0.,40.));
#671=CARTESIAN_POINT('',(-91.45,0.,40.));
#672=CARTESIAN_POINT('Origin',(-90.,0.,40.));
#673=CARTESIAN_POINT('Origin',(20.,0.,40.));
#674=CARTESIAN_POINT('',(18.55,3.,40.));
#675=CARTESIAN_POINT('Origin',(20.,3.,40.));
#676=CARTESIAN_POINT('',(18.55,0.,40.));
#677=CARTESIAN_POINT('',(18.55,0.,40.));
#678=CARTESIAN_POINT('Origin',(20.,0.,40.));
#679=CARTESIAN_POINT('Origin',(-95.,0.,46.4));
#680=CARTESIAN_POINT('',(25.4,0.,46.4));
#681=CARTESIAN_POINT('',(-95.,0.,46.4));
#682=CARTESIAN_POINT('',(25.4,0.,46.4));
#683=CARTESIAN_POINT('',(25.4,3.,46.4));
#684=CARTESIAN_POINT('',(25.4,0.,46.4));
#685=CARTESIAN_POINT('',(-95.,3.,46.4));
#686=CARTESIAN_POINT('',(25.4,3.,46.4));
#687=CARTESIAN_POINT('',(-95.,0.,46.4));
#688=CARTESIAN_POINT('Origin',(-95.,0.,-50.));
#689=CARTESIAN_POINT('',(-95.,0.,-50.));
#690=CARTESIAN_POINT('',(-95.,0.,46.4));
#691=CARTESIAN_POINT('',(-95.,3.,-50.));
#692=CARTESIAN_POINT('',(-95.,3.,46.4));
#693=CARTESIAN_POINT('',(-95.,0.,-50.));
#694=CARTESIAN_POINT('Origin',(25.4,0.,-50.));
#695=CARTESIAN_POINT('',(25.4,0.,-50.));
#696=CARTESIAN_POINT('',(-95.,0.,-50.));
#697=CARTESIAN_POINT('',(25.4,3.,-50.));
#698=CARTESIAN_POINT('',(-95.,3.,-50.));
#699=CARTESIAN_POINT('',(25.4,0.,-50.));
#700=CARTESIAN_POINT('Origin',(25.4,0.,46.4));
#701=CARTESIAN_POINT('',(25.4,0.,-50.));
#702=CARTESIAN_POINT('',(25.4,3.,-50.));
#703=CARTESIAN_POINT('Origin',(-34.8,3.,-1.8));
#704=CARTESIAN_POINT('Origin',(-34.8,0.,-1.8));
#705=CARTESIAN_POINT('Origin',(-90.,0.,-45.));
#706=CARTESIAN_POINT('',(-91.45,10.,-45.));
#707=CARTESIAN_POINT('Origin',(-90.,10.,-45.));
#708=CARTESIAN_POINT('',(-91.45,0.,-45.));
#709=CARTESIAN_POINT('',(-91.45,0.,-45.));
#710=CARTESIAN_POINT('Origin',(-90.,0.,-45.));
#711=CARTESIAN_POINT('Origin',(20.,0.,40.));
#712=CARTESIAN_POINT('',(18.55,10.,40.));
#713=CARTESIAN_POINT('Origin',(20.,10.,40.));
#714=CARTESIAN_POINT('',(18.55,0.,40.));
#715=CARTESIAN_POINT('',(18.55,0.,40.));
#716=CARTESIAN_POINT('Origin',(20.,0.,40.));
#717=CARTESIAN_POINT('Origin',(15.4,0.,-40.));
#718=CARTESIAN_POINT('',(15.4,0.,-40.));
#719=CARTESIAN_POINT('',(15.4,0.,36.4));
#720=CARTESIAN_POINT('',(15.4,0.,-40.));
#721=CARTESIAN_POINT('',(15.4,10.,36.4));
#722=CARTESIAN_POINT('',(15.4,0.,36.4));
#723=CARTESIAN_POINT('',(15.4,10.,-40.));
#724=CARTESIAN_POINT('',(15.4,10.,-40.));
#725=CARTESIAN_POINT('',(15.4,0.,-40.));
#726=CARTESIAN_POINT('Origin',(-85.,0.,-40.));
#727=CARTESIAN_POINT('',(-85.,0.,-40.));
#728=CARTESIAN_POINT('',(-85.,0.,-40.));
#729=CARTESIAN_POINT('',(-85.,10.,-40.));
#730=CARTESIAN_POINT('',(-85.,10.,-40.));
#731=CARTESIAN_POINT('',(-85.,0.,-40.));
#732=CARTESIAN_POINT('Origin',(-85.,0.,36.4));
#733=CARTESIAN_POINT('',(-85.,0.,36.4));
#734=CARTESIAN_POINT('',(-85.,0.,36.4));
#735=CARTESIAN_POINT('',(-85.,10.,36.4));
#736=CARTESIAN_POINT('',(-85.,10.,36.4));
#737=CARTESIAN_POINT('',(-85.,0.,36.4));
#738=CARTESIAN_POINT('Origin',(15.4,0.,36.4));
#739=CARTESIAN_POINT('',(15.4,0.,36.4));
#740=CARTESIAN_POINT('',(15.4,10.,36.4));
#741=CARTESIAN_POINT('Origin',(20.,0.,-45.));
#742=CARTESIAN_POINT('',(18.55,10.,-45.));
#743=CARTESIAN_POINT('Origin',(20.,10.,-45.));
#744=CARTESIAN_POINT('',(18.55,0.,-45.));
#745=CARTESIAN_POINT('',(18.55,0.,-45.));
#746=CARTESIAN_POINT('Origin',(20.,0.,-45.));
#747=CARTESIAN_POINT('Origin',(-90.,0.,40.));
#748=CARTESIAN_POINT('',(-91.45,10.,40.));
#749=CARTESIAN_POINT('Origin',(-90.,10.,40.));
#750=CARTESIAN_POINT('',(-91.45,0.,40.));
#751=CARTESIAN_POINT('',(-91.45,0.,40.));
#752=CARTESIAN_POINT('Origin',(-90.,0.,40.));
#753=CARTESIAN_POINT('Origin',(-95.,0.,46.4));
#754=CARTESIAN_POINT('',(25.4,0.,46.4));
#755=CARTESIAN_POINT('',(-95.,0.,46.4));
#756=CARTESIAN_POINT('',(25.4,0.,46.4));
#757=CARTESIAN_POINT('',(25.4,10.,46.4));
#758=CARTESIAN_POINT('',(25.4,0.,46.4));
#759=CARTESIAN_POINT('',(-95.,10.,46.4));
#760=CARTESIAN_POINT('',(25.4,10.,46.4));
#761=CARTESIAN_POINT('',(-95.,0.,46.4));
#762=CARTESIAN_POINT('Origin',(-95.,0.,-50.));
#763=CARTESIAN_POINT('',(-95.,0.,-50.));
#764=CARTESIAN_POINT('',(-95.,0.,46.4));
#765=CARTESIAN_POINT('',(-95.,10.,-50.));
#766=CARTESIAN_POINT('',(-95.,10.,46.4));
#767=CARTESIAN_POINT('',(-95.,0.,-50.));
#768=CARTESIAN_POINT('Origin',(25.4,0.,-50.));
#769=CARTESIAN_POINT('',(25.4,0.,-50.));
#770=CARTESIAN_POINT('',(-95.,0.,-50.));
#771=CARTESIAN_POINT('',(25.4,10.,-50.));
#772=CARTESIAN_POINT('',(-95.,10.,-50.));
#773=CARTESIAN_POINT('',(25.4,0.,-50.));
#774=CARTESIAN_POINT('Origin',(25.4,0.,46.4));
#775=CARTESIAN_POINT('',(25.4,0.,-50.));
#776=CARTESIAN_POINT('',(25.4,10.,-50.));
#777=CARTESIAN_POINT('Origin',(-34.8,10.,-1.8));
#778=CARTESIAN_POINT('Origin',(-34.8,0.,-1.8));
#779=UNCERTAINTY_MEASURE_WITH_UNIT(LENGTH_MEASURE(0.01),#783,
'DISTANCE_ACCURACY_VALUE',
'Maximum model space distance between geometric entities at asserted c
onnectivities');
#780=UNCERTAINTY_MEASURE_WITH_UNIT(LENGTH_MEASURE(0.01),#783,
'DISTANCE_ACCURACY_VALUE',
'Maximum model space distance between geometric entities at asserted c
onnectivities');
#781=(
GEOMETRIC_REPRESENTATION_CONTEXT(3)
GLOBAL_UNCERTAINTY_ASSIGNED_CONTEXT((#779))
GLOBAL_UNIT_ASSIGNED_CONTEXT((#783,#785,#786))
REPRESENTATION_CONTEXT('','3D')
);
#782=(
GEOMETRIC_REPRESENTATION_CONTEXT(3)
GLOBAL_UNCERTAINTY_ASSIGNED_CONTEXT((#780))
GLOBAL_UNIT_ASSIGNED_CONTEXT((#783,#785,#786))
REPRESENTATION_CONTEXT('','3D')
);
#783=(
LENGTH_UNIT()
NAMED_UNIT(*)
SI_UNIT(.MILLI.,.METRE.)
);
#784=(
LENGTH_UNIT()
NAMED_UNIT(*)
SI_UNIT($,.METRE.)
);
#785=(
NAMED_UNIT(*)
PLANE_ANGLE_UNIT()
SI_UNIT($,.RADIAN.)
);
#786=(
NAMED_UNIT(*)
SI_UNIT($,.STERADIAN.)
SOLID_ANGLE_UNIT()
);
#787=SHAPE_DEFINITION_REPRESENTATION(#788,#789);
#788=PRODUCT_DEFINITION_SHAPE('',$,#791);
#789=SHAPE_REPRESENTATION('',(#487),#781);
#790=PRODUCT_DEFINITION_CONTEXT('part definition',#795,'design');
#791=PRODUCT_DEFINITION('2026-09-17-18-19-13-558',
'case with pcb (~recovered)',#792,#790);
#792=PRODUCT_DEFINITION_FORMATION('',$,#797);
#793=PRODUCT_RELATED_PRODUCT_CATEGORY('case with pcb (~recovered)',
'case with pcb (~recovered)',(#797));
#794=APPLICATION_PROTOCOL_DEFINITION('international standard',
'automotive_design',2009,#795);
#795=APPLICATION_CONTEXT(
'Core Data for Automotive Mechanical Design Process');
#796=PRODUCT_CONTEXT('part definition',#795,'mechanical');
#797=PRODUCT('2026-09-17-18-19-13-558','case with pcb (~recovered)',$,(#796));
#798=PRESENTATION_STYLE_ASSIGNMENT((#799));
#799=SURFACE_STYLE_USAGE(.BOTH.,#800);
#800=SURFACE_SIDE_STYLE('',(#801));
#801=SURFACE_STYLE_FILL_AREA(#802);
#802=FILL_AREA_STYLE('Steel - Satin',(#803));
#803=FILL_AREA_STYLE_COLOUR('Steel - Satin',#804);
#804=COLOUR_RGB('Steel - Satin',0.627450980392157,0.627450980392157,0.627450980392157);
ENDSEC;
END-ISO-10303-21;
