ISO-10303-21;
HEADER;
/* Generated by software containing ST-Developer
 * from STEP Tools, Inc. (www.steptools.com) 
 */

FILE_DESCRIPTION(
/* description */ (''),
/* implementation_level */ '2;1');

FILE_NAME(
/* name */ 'top_.step',
/* time_stamp */ '2026-09-22T18:25:59+05:30',
/* author */ (''),
/* organization */ (''),
/* preprocessor_version */ 'ST-DEVELOPER v20.2',
/* originating_system */ 'Autodesk Translation Framework v15.15.0.0',
/* authorisation */ '');

FILE_SCHEMA (('AUTOMOTIVE_DESIGN { 1 0 10303 214 3 1 1 }'));
ENDSEC;

DATA;
#10=MECHANICAL_DESIGN_GEOMETRIC_PRESENTATION_REPRESENTATION('',(#13,#14),
#1432);
#11=SHAPE_REPRESENTATION_RELATIONSHIP('SRR','None',#1439,#12);
#12=ADVANCED_BREP_SHAPE_REPRESENTATION('',(#15,#16),#1431);
#13=STYLED_ITEM('',(#1448),#15);
#14=STYLED_ITEM('',(#1448),#16);
#15=MANIFOLD_SOLID_BREP('Body1',#903);
#16=MANIFOLD_SOLID_BREP('Body3',#904);
#17=CYLINDRICAL_SURFACE('',#931,1.45);
#18=CYLINDRICAL_SURFACE('',#933,1.45);
#19=CYLINDRICAL_SURFACE('',#935,1.45);
#20=CIRCLE('',#925,1.45);
#21=CIRCLE('',#926,1.45);
#22=CIRCLE('',#927,1.45);
#23=CIRCLE('',#932,1.45);
#24=CIRCLE('',#934,1.45);
#25=CIRCLE('',#936,1.45);
#26=FACE_BOUND('',#95,.T.);
#27=FACE_BOUND('',#96,.T.);
#28=FACE_BOUND('',#97,.T.);
#29=FACE_BOUND('',#98,.T.);
#30=FACE_BOUND('',#100,.T.);
#31=FACE_BOUND('',#101,.T.);
#32=FACE_BOUND('',#104,.T.);
#33=FACE_BOUND('',#109,.T.);
#34=FACE_BOUND('',#124,.T.);
#35=FACE_BOUND('',#125,.T.);
#36=FACE_BOUND('',#126,.T.);
#37=FACE_BOUND('',#127,.T.);
#38=FACE_BOUND('',#128,.T.);
#39=FACE_BOUND('',#129,.T.);
#40=FACE_BOUND('',#145,.T.);
#41=FACE_BOUND('',#146,.T.);
#42=FACE_BOUND('',#148,.T.);
#43=FACE_BOUND('',#149,.T.);
#44=FACE_OUTER_BOUND('',#88,.T.);
#45=FACE_OUTER_BOUND('',#89,.T.);
#46=FACE_OUTER_BOUND('',#90,.T.);
#47=FACE_OUTER_BOUND('',#91,.T.);
#48=FACE_OUTER_BOUND('',#92,.T.);
#49=FACE_OUTER_BOUND('',#93,.T.);
#50=FACE_OUTER_BOUND('',#94,.T.);
#51=FACE_OUTER_BOUND('',#99,.T.);
#52=FACE_OUTER_BOUND('',#102,.T.);
#53=FACE_OUTER_BOUND('',#103,.T.);
#54=FACE_OUTER_BOUND('',#105,.T.);
#55=FACE_OUTER_BOUND('',#106,.T.);
#56=FACE_OUTER_BOUND('',#107,.T.);
#57=FACE_OUTER_BOUND('',#108,.T.);
#58=FACE_OUTER_BOUND('',#110,.T.);
#59=FACE_OUTER_BOUND('',#111,.T.);
#60=FACE_OUTER_BOUND('',#112,.T.);
#61=FACE_OUTER_BOUND('',#113,.T.);
#62=FACE_OUTER_BOUND('',#114,.T.);
#63=FACE_OUTER_BOUND('',#115,.T.);
#64=FACE_OUTER_BOUND('',#116,.T.);
#65=FACE_OUTER_BOUND('',#117,.T.);
#66=FACE_OUTER_BOUND('',#118,.T.);
#67=FACE_OUTER_BOUND('',#119,.T.);
#68=FACE_OUTER_BOUND('',#120,.T.);
#69=FACE_OUTER_BOUND('',#121,.T.);
#70=FACE_OUTER_BOUND('',#122,.T.);
#71=FACE_OUTER_BOUND('',#123,.T.);
#72=FACE_OUTER_BOUND('',#130,.T.);
#73=FACE_OUTER_BOUND('',#131,.T.);
#74=FACE_OUTER_BOUND('',#132,.T.);
#75=FACE_OUTER_BOUND('',#133,.T.);
#76=FACE_OUTER_BOUND('',#134,.T.);
#77=FACE_OUTER_BOUND('',#135,.T.);
#78=FACE_OUTER_BOUND('',#136,.T.);
#79=FACE_OUTER_BOUND('',#137,.T.);
#80=FACE_OUTER_BOUND('',#138,.T.);
#81=FACE_OUTER_BOUND('',#139,.T.);
#82=FACE_OUTER_BOUND('',#140,.T.);
#83=FACE_OUTER_BOUND('',#141,.T.);
#84=FACE_OUTER_BOUND('',#142,.T.);
#85=FACE_OUTER_BOUND('',#143,.T.);
#86=FACE_OUTER_BOUND('',#144,.T.);
#87=FACE_OUTER_BOUND('',#147,.T.);
#88=EDGE_LOOP('',(#578,#579,#580,#581));
#89=EDGE_LOOP('',(#582,#583,#584,#585));
#90=EDGE_LOOP('',(#586,#587,#588,#589));
#91=EDGE_LOOP('',(#590,#591,#592,#593));
#92=EDGE_LOOP('',(#594,#595,#596,#597));
#93=EDGE_LOOP('',(#598,#599,#600,#601));
#94=EDGE_LOOP('',(#602,#603,#604,#605));
#95=EDGE_LOOP('',(#606,#607,#608,#609));
#96=EDGE_LOOP('',(#610));
#97=EDGE_LOOP('',(#611));
#98=EDGE_LOOP('',(#612));
#99=EDGE_LOOP('',(#613,#614,#615,#616,#617,#618));
#100=EDGE_LOOP('',(#619,#620,#621,#622));
#101=EDGE_LOOP('',(#623,#624,#625,#626));
#102=EDGE_LOOP('',(#627,#628,#629,#630,#631,#632));
#103=EDGE_LOOP('',(#633,#634,#635,#636,#637,#638));
#104=EDGE_LOOP('',(#639,#640,#641,#642));
#105=EDGE_LOOP('',(#643,#644,#645,#646));
#106=EDGE_LOOP('',(#647,#648,#649,#650));
#107=EDGE_LOOP('',(#651,#652,#653,#654));
#108=EDGE_LOOP('',(#655,#656,#657,#658));
#109=EDGE_LOOP('',(#659,#660,#661,#662));
#110=EDGE_LOOP('',(#663,#664,#665,#666));
#111=EDGE_LOOP('',(#667,#668,#669,#670));
#112=EDGE_LOOP('',(#671,#672,#673,#674));
#113=EDGE_LOOP('',(#675,#676,#677,#678));
#114=EDGE_LOOP('',(#679,#680,#681,#682));
#115=EDGE_LOOP('',(#683,#684,#685,#686));
#116=EDGE_LOOP('',(#687,#688,#689,#690));
#117=EDGE_LOOP('',(#691,#692,#693,#694));
#118=EDGE_LOOP('',(#695,#696,#697,#698));
#119=EDGE_LOOP('',(#699,#700,#701,#702));
#120=EDGE_LOOP('',(#703,#704,#705,#706));
#121=EDGE_LOOP('',(#707,#708,#709,#710));
#122=EDGE_LOOP('',(#711,#712,#713,#714));
#123=EDGE_LOOP('',(#715,#716,#717,#718));
#124=EDGE_LOOP('',(#719));
#125=EDGE_LOOP('',(#720));
#126=EDGE_LOOP('',(#721));
#127=EDGE_LOOP('',(#722,#723,#724,#725));
#128=EDGE_LOOP('',(#726,#727,#728,#729));
#129=EDGE_LOOP('',(#730,#731,#732,#733));
#130=EDGE_LOOP('',(#734,#735,#736,#737));
#131=EDGE_LOOP('',(#738,#739,#740,#741));
#132=EDGE_LOOP('',(#742,#743,#744,#745));
#133=EDGE_LOOP('',(#746,#747,#748,#749));
#134=EDGE_LOOP('',(#750,#751,#752,#753));
#135=EDGE_LOOP('',(#754,#755,#756,#757));
#136=EDGE_LOOP('',(#758,#759,#760,#761));
#137=EDGE_LOOP('',(#762,#763,#764,#765));
#138=EDGE_LOOP('',(#766,#767,#768,#769));
#139=EDGE_LOOP('',(#770,#771,#772,#773));
#140=EDGE_LOOP('',(#774,#775,#776,#777));
#141=EDGE_LOOP('',(#778,#779,#780,#781));
#142=EDGE_LOOP('',(#782,#783,#784,#785));
#143=EDGE_LOOP('',(#786,#787,#788,#789));
#144=EDGE_LOOP('',(#790,#791,#792,#793,#794,#795));
#145=EDGE_LOOP('',(#796,#797,#798,#799));
#146=EDGE_LOOP('',(#800,#801,#802,#803));
#147=EDGE_LOOP('',(#804,#805,#806,#807,#808,#809));
#148=EDGE_LOOP('',(#810,#811,#812,#813));
#149=EDGE_LOOP('',(#814,#815,#816,#817));
#150=LINE('',#1188,#264);
#151=LINE('',#1190,#265);
#152=LINE('',#1192,#266);
#153=LINE('',#1193,#267);
#154=LINE('',#1196,#268);
#155=LINE('',#1198,#269);
#156=LINE('',#1199,#270);
#157=LINE('',#1202,#271);
#158=LINE('',#1204,#272);
#159=LINE('',#1205,#273);
#160=LINE('',#1207,#274);
#161=LINE('',#1208,#275);
#162=LINE('',#1212,#276);
#163=LINE('',#1214,#277);
#164=LINE('',#1216,#278);
#165=LINE('',#1217,#279);
#166=LINE('',#1220,#280);
#167=LINE('',#1222,#281);
#168=LINE('',#1223,#282);
#169=LINE('',#1227,#283);
#170=LINE('',#1229,#284);
#171=LINE('',#1231,#285);
#172=LINE('',#1232,#286);
#173=LINE('',#1234,#287);
#174=LINE('',#1235,#288);
#175=LINE('',#1245,#289);
#176=LINE('',#1246,#290);
#177=LINE('',#1248,#291);
#178=LINE('',#1249,#292);
#179=LINE('',#1252,#293);
#180=LINE('',#1254,#294);
#181=LINE('',#1256,#295);
#182=LINE('',#1257,#296);
#183=LINE('',#1260,#297);
#184=LINE('',#1262,#298);
#185=LINE('',#1264,#299);
#186=LINE('',#1265,#300);
#187=LINE('',#1268,#301);
#188=LINE('',#1270,#302);
#189=LINE('',#1271,#303);
#190=LINE('',#1274,#304);
#191=LINE('',#1275,#305);
#192=LINE('',#1278,#306);
#193=LINE('',#1282,#307);
#194=LINE('',#1286,#308);
#195=LINE('',#1291,#309);
#196=LINE('',#1292,#310);
#197=LINE('',#1293,#311);
#198=LINE('',#1296,#312);
#199=LINE('',#1297,#313);
#200=LINE('',#1300,#314);
#201=LINE('',#1301,#315);
#202=LINE('',#1303,#316);
#203=LINE('',#1307,#317);
#204=LINE('',#1308,#318);
#205=LINE('',#1309,#319);
#206=LINE('',#1312,#320);
#207=LINE('',#1313,#321);
#208=LINE('',#1316,#322);
#209=LINE('',#1317,#323);
#210=LINE('',#1319,#324);
#211=LINE('',#1323,#325);
#212=LINE('',#1324,#326);
#213=LINE('',#1325,#327);
#214=LINE('',#1328,#328);
#215=LINE('',#1329,#329);
#216=LINE('',#1332,#330);
#217=LINE('',#1333,#331);
#218=LINE('',#1335,#332);
#219=LINE('',#1338,#333);
#220=LINE('',#1339,#334);
#221=LINE('',#1341,#335);
#222=LINE('',#1346,#336);
#223=LINE('',#1348,#337);
#224=LINE('',#1350,#338);
#225=LINE('',#1351,#339);
#226=LINE('',#1354,#340);
#227=LINE('',#1356,#341);
#228=LINE('',#1357,#342);
#229=LINE('',#1360,#343);
#230=LINE('',#1362,#344);
#231=LINE('',#1363,#345);
#232=LINE('',#1365,#346);
#233=LINE('',#1366,#347);
#234=LINE('',#1370,#348);
#235=LINE('',#1372,#349);
#236=LINE('',#1374,#350);
#237=LINE('',#1375,#351);
#238=LINE('',#1378,#352);
#239=LINE('',#1380,#353);
#240=LINE('',#1381,#354);
#241=LINE('',#1384,#355);
#242=LINE('',#1386,#356);
#243=LINE('',#1387,#357);
#244=LINE('',#1389,#358);
#245=LINE('',#1390,#359);
#246=LINE('',#1394,#360);
#247=LINE('',#1396,#361);
#248=LINE('',#1398,#362);
#249=LINE('',#1399,#363);
#250=LINE('',#1402,#364);
#251=LINE('',#1404,#365);
#252=LINE('',#1405,#366);
#253=LINE('',#1408,#367);
#254=LINE('',#1410,#368);
#255=LINE('',#1411,#369);
#256=LINE('',#1414,#370);
#257=LINE('',#1416,#371);
#258=LINE('',#1417,#372);
#259=LINE('',#1420,#373);
#260=LINE('',#1422,#374);
#261=LINE('',#1423,#375);
#262=LINE('',#1425,#376);
#263=LINE('',#1426,#377);
#264=VECTOR('',#972,10.);
#265=VECTOR('',#973,10.);
#266=VECTOR('',#974,10.);
#267=VECTOR('',#975,10.);
#268=VECTOR('',#978,10.);
#269=VECTOR('',#979,10.);
#270=VECTOR('',#980,10.);
#271=VECTOR('',#983,10.);
#272=VECTOR('',#984,10.);
#273=VECTOR('',#985,10.);
#274=VECTOR('',#988,10.);
#275=VECTOR('',#989,10.);
#276=VECTOR('',#992,10.);
#277=VECTOR('',#993,10.);
#278=VECTOR('',#994,10.);
#279=VECTOR('',#995,10.);
#280=VECTOR('',#998,10.);
#281=VECTOR('',#999,10.);
#282=VECTOR('',#1000,10.);
#283=VECTOR('',#1003,10.);
#284=VECTOR('',#1004,10.);
#285=VECTOR('',#1005,10.);
#286=VECTOR('',#1006,10.);
#287=VECTOR('',#1007,10.);
#288=VECTOR('',#1008,10.);
#289=VECTOR('',#1017,10.);
#290=VECTOR('',#1018,10.);
#291=VECTOR('',#1019,10.);
#292=VECTOR('',#1020,10.);
#293=VECTOR('',#1021,10.);
#294=VECTOR('',#1022,10.);
#295=VECTOR('',#1023,10.);
#296=VECTOR('',#1024,10.);
#297=VECTOR('',#1025,10.);
#298=VECTOR('',#1026,10.);
#299=VECTOR('',#1027,10.);
#300=VECTOR('',#1028,10.);
#301=VECTOR('',#1031,10.);
#302=VECTOR('',#1032,10.);
#303=VECTOR('',#1033,10.);
#304=VECTOR('',#1036,10.);
#305=VECTOR('',#1037,10.);
#306=VECTOR('',#1040,1.45);
#307=VECTOR('',#1045,1.45);
#308=VECTOR('',#1050,1.45);
#309=VECTOR('',#1055,10.);
#310=VECTOR('',#1056,10.);
#311=VECTOR('',#1057,10.);
#312=VECTOR('',#1060,10.);
#313=VECTOR('',#1061,10.);
#314=VECTOR('',#1064,10.);
#315=VECTOR('',#1065,10.);
#316=VECTOR('',#1068,10.);
#317=VECTOR('',#1071,10.);
#318=VECTOR('',#1072,10.);
#319=VECTOR('',#1073,10.);
#320=VECTOR('',#1076,10.);
#321=VECTOR('',#1077,10.);
#322=VECTOR('',#1080,10.);
#323=VECTOR('',#1081,10.);
#324=VECTOR('',#1084,10.);
#325=VECTOR('',#1087,10.);
#326=VECTOR('',#1088,10.);
#327=VECTOR('',#1089,10.);
#328=VECTOR('',#1092,10.);
#329=VECTOR('',#1093,10.);
#330=VECTOR('',#1096,10.);
#331=VECTOR('',#1097,10.);
#332=VECTOR('',#1100,10.);
#333=VECTOR('',#1103,10.);
#334=VECTOR('',#1104,10.);
#335=VECTOR('',#1107,10.);
#336=VECTOR('',#1112,10.);
#337=VECTOR('',#1113,10.);
#338=VECTOR('',#1114,10.);
#339=VECTOR('',#1115,10.);
#340=VECTOR('',#1118,10.);
#341=VECTOR('',#1119,10.);
#342=VECTOR('',#1120,10.);
#343=VECTOR('',#1123,10.);
#344=VECTOR('',#1124,10.);
#345=VECTOR('',#1125,10.);
#346=VECTOR('',#1128,10.);
#347=VECTOR('',#1129,10.);
#348=VECTOR('',#1132,10.);
#349=VECTOR('',#1133,10.);
#350=VECTOR('',#1134,10.);
#351=VECTOR('',#1135,10.);
#352=VECTOR('',#1138,10.);
#353=VECTOR('',#1139,10.);
#354=VECTOR('',#1140,10.);
#355=VECTOR('',#1143,10.);
#356=VECTOR('',#1144,10.);
#357=VECTOR('',#1145,10.);
#358=VECTOR('',#1148,10.);
#359=VECTOR('',#1149,10.);
#360=VECTOR('',#1152,10.);
#361=VECTOR('',#1153,10.);
#362=VECTOR('',#1154,10.);
#363=VECTOR('',#1155,10.);
#364=VECTOR('',#1158,10.);
#365=VECTOR('',#1159,10.);
#366=VECTOR('',#1160,10.);
#367=VECTOR('',#1163,10.);
#368=VECTOR('',#1164,10.);
#369=VECTOR('',#1165,10.);
#370=VECTOR('',#1168,10.);
#371=VECTOR('',#1169,10.);
#372=VECTOR('',#1170,10.);
#373=VECTOR('',#1173,10.);
#374=VECTOR('',#1174,10.);
#375=VECTOR('',#1175,10.);
#376=VECTOR('',#1178,10.);
#377=VECTOR('',#1179,10.);
#378=VERTEX_POINT('',#1186);
#379=VERTEX_POINT('',#1187);
#380=VERTEX_POINT('',#1189);
#381=VERTEX_POINT('',#1191);
#382=VERTEX_POINT('',#1195);
#383=VERTEX_POINT('',#1197);
#384=VERTEX_POINT('',#1201);
#385=VERTEX_POINT('',#1203);
#386=VERTEX_POINT('',#1210);
#387=VERTEX_POINT('',#1211);
#388=VERTEX_POINT('',#1213);
#389=VERTEX_POINT('',#1215);
#390=VERTEX_POINT('',#1219);
#391=VERTEX_POINT('',#1221);
#392=VERTEX_POINT('',#1225);
#393=VERTEX_POINT('',#1226);
#394=VERTEX_POINT('',#1228);
#395=VERTEX_POINT('',#1230);
#396=VERTEX_POINT('',#1233);
#397=VERTEX_POINT('',#1236);
#398=VERTEX_POINT('',#1238);
#399=VERTEX_POINT('',#1240);
#400=VERTEX_POINT('',#1243);
#401=VERTEX_POINT('',#1244);
#402=VERTEX_POINT('',#1247);
#403=VERTEX_POINT('',#1250);
#404=VERTEX_POINT('',#1251);
#405=VERTEX_POINT('',#1253);
#406=VERTEX_POINT('',#1255);
#407=VERTEX_POINT('',#1258);
#408=VERTEX_POINT('',#1259);
#409=VERTEX_POINT('',#1261);
#410=VERTEX_POINT('',#1263);
#411=VERTEX_POINT('',#1267);
#412=VERTEX_POINT('',#1269);
#413=VERTEX_POINT('',#1273);
#414=VERTEX_POINT('',#1277);
#415=VERTEX_POINT('',#1281);
#416=VERTEX_POINT('',#1285);
#417=VERTEX_POINT('',#1289);
#418=VERTEX_POINT('',#1290);
#419=VERTEX_POINT('',#1295);
#420=VERTEX_POINT('',#1299);
#421=VERTEX_POINT('',#1305);
#422=VERTEX_POINT('',#1306);
#423=VERTEX_POINT('',#1311);
#424=VERTEX_POINT('',#1315);
#425=VERTEX_POINT('',#1321);
#426=VERTEX_POINT('',#1322);
#427=VERTEX_POINT('',#1327);
#428=VERTEX_POINT('',#1331);
#429=VERTEX_POINT('',#1337);
#430=VERTEX_POINT('',#1344);
#431=VERTEX_POINT('',#1345);
#432=VERTEX_POINT('',#1347);
#433=VERTEX_POINT('',#1349);
#434=VERTEX_POINT('',#1353);
#435=VERTEX_POINT('',#1355);
#436=VERTEX_POINT('',#1359);
#437=VERTEX_POINT('',#1361);
#438=VERTEX_POINT('',#1368);
#439=VERTEX_POINT('',#1369);
#440=VERTEX_POINT('',#1371);
#441=VERTEX_POINT('',#1373);
#442=VERTEX_POINT('',#1377);
#443=VERTEX_POINT('',#1379);
#444=VERTEX_POINT('',#1383);
#445=VERTEX_POINT('',#1385);
#446=VERTEX_POINT('',#1392);
#447=VERTEX_POINT('',#1393);
#448=VERTEX_POINT('',#1395);
#449=VERTEX_POINT('',#1397);
#450=VERTEX_POINT('',#1401);
#451=VERTEX_POINT('',#1403);
#452=VERTEX_POINT('',#1407);
#453=VERTEX_POINT('',#1409);
#454=VERTEX_POINT('',#1413);
#455=VERTEX_POINT('',#1415);
#456=VERTEX_POINT('',#1419);
#457=VERTEX_POINT('',#1421);
#458=EDGE_CURVE('',#378,#379,#150,.T.);
#459=EDGE_CURVE('',#378,#380,#151,.T.);
#460=EDGE_CURVE('',#381,#380,#152,.T.);
#461=EDGE_CURVE('',#379,#381,#153,.T.);
#462=EDGE_CURVE('',#382,#378,#154,.T.);
#463=EDGE_CURVE('',#382,#383,#155,.T.);
#464=EDGE_CURVE('',#380,#383,#156,.T.);
#465=EDGE_CURVE('',#384,#382,#157,.T.);
#466=EDGE_CURVE('',#384,#385,#158,.T.);
#467=EDGE_CURVE('',#383,#385,#159,.T.);
#468=EDGE_CURVE('',#379,#384,#160,.T.);
#469=EDGE_CURVE('',#385,#381,#161,.T.);
#470=EDGE_CURVE('',#386,#387,#162,.T.);
#471=EDGE_CURVE('',#386,#388,#163,.T.);
#472=EDGE_CURVE('',#389,#388,#164,.T.);
#473=EDGE_CURVE('',#387,#389,#165,.T.);
#474=EDGE_CURVE('',#390,#386,#166,.T.);
#475=EDGE_CURVE('',#390,#391,#167,.T.);
#476=EDGE_CURVE('',#388,#391,#168,.T.);
#477=EDGE_CURVE('',#392,#393,#169,.T.);
#478=EDGE_CURVE('',#393,#394,#170,.T.);
#479=EDGE_CURVE('',#394,#395,#171,.T.);
#480=EDGE_CURVE('',#395,#392,#172,.T.);
#481=EDGE_CURVE('',#391,#396,#173,.T.);
#482=EDGE_CURVE('',#396,#389,#174,.T.);
#483=EDGE_CURVE('',#397,#397,#20,.T.);
#484=EDGE_CURVE('',#398,#398,#21,.T.);
#485=EDGE_CURVE('',#399,#399,#22,.T.);
#486=EDGE_CURVE('',#400,#401,#175,.T.);
#487=EDGE_CURVE('',#401,#390,#176,.T.);
#488=EDGE_CURVE('',#387,#402,#177,.T.);
#489=EDGE_CURVE('',#402,#400,#178,.T.);
#490=EDGE_CURVE('',#403,#404,#179,.T.);
#491=EDGE_CURVE('',#404,#405,#180,.T.);
#492=EDGE_CURVE('',#405,#406,#181,.T.);
#493=EDGE_CURVE('',#406,#403,#182,.T.);
#494=EDGE_CURVE('',#407,#408,#183,.T.);
#495=EDGE_CURVE('',#408,#409,#184,.T.);
#496=EDGE_CURVE('',#409,#410,#185,.T.);
#497=EDGE_CURVE('',#410,#407,#186,.T.);
#498=EDGE_CURVE('',#411,#402,#187,.T.);
#499=EDGE_CURVE('',#412,#396,#188,.T.);
#500=EDGE_CURVE('',#412,#411,#189,.T.);
#501=EDGE_CURVE('',#413,#401,#190,.T.);
#502=EDGE_CURVE('',#413,#412,#191,.T.);
#503=EDGE_CURVE('',#399,#414,#192,.T.);
#504=EDGE_CURVE('',#414,#414,#23,.T.);
#505=EDGE_CURVE('',#398,#415,#193,.T.);
#506=EDGE_CURVE('',#415,#415,#24,.T.);
#507=EDGE_CURVE('',#397,#416,#194,.T.);
#508=EDGE_CURVE('',#416,#416,#25,.T.);
#509=EDGE_CURVE('',#417,#418,#195,.T.);
#510=EDGE_CURVE('',#417,#392,#196,.T.);
#511=EDGE_CURVE('',#418,#395,#197,.T.);
#512=EDGE_CURVE('',#418,#419,#198,.T.);
#513=EDGE_CURVE('',#419,#394,#199,.T.);
#514=EDGE_CURVE('',#419,#420,#200,.T.);
#515=EDGE_CURVE('',#420,#393,#201,.T.);
#516=EDGE_CURVE('',#420,#417,#202,.T.);
#517=EDGE_CURVE('',#421,#422,#203,.T.);
#518=EDGE_CURVE('',#422,#407,#204,.T.);
#519=EDGE_CURVE('',#421,#410,#205,.T.);
#520=EDGE_CURVE('',#423,#421,#206,.T.);
#521=EDGE_CURVE('',#423,#409,#207,.T.);
#522=EDGE_CURVE('',#424,#423,#208,.T.);
#523=EDGE_CURVE('',#424,#408,#209,.T.);
#524=EDGE_CURVE('',#422,#424,#210,.T.);
#525=EDGE_CURVE('',#425,#426,#211,.T.);
#526=EDGE_CURVE('',#426,#403,#212,.T.);
#527=EDGE_CURVE('',#425,#406,#213,.T.);
#528=EDGE_CURVE('',#427,#425,#214,.T.);
#529=EDGE_CURVE('',#427,#405,#215,.T.);
#530=EDGE_CURVE('',#428,#427,#216,.T.);
#531=EDGE_CURVE('',#428,#404,#217,.T.);
#532=EDGE_CURVE('',#426,#428,#218,.T.);
#533=EDGE_CURVE('',#429,#411,#219,.T.);
#534=EDGE_CURVE('',#429,#400,#220,.T.);
#535=EDGE_CURVE('',#413,#429,#221,.T.);
#536=EDGE_CURVE('',#430,#431,#222,.T.);
#537=EDGE_CURVE('',#431,#432,#223,.T.);
#538=EDGE_CURVE('',#433,#432,#224,.T.);
#539=EDGE_CURVE('',#430,#433,#225,.T.);
#540=EDGE_CURVE('',#434,#430,#226,.T.);
#541=EDGE_CURVE('',#435,#433,#227,.T.);
#542=EDGE_CURVE('',#434,#435,#228,.T.);
#543=EDGE_CURVE('',#436,#434,#229,.T.);
#544=EDGE_CURVE('',#437,#435,#230,.T.);
#545=EDGE_CURVE('',#436,#437,#231,.T.);
#546=EDGE_CURVE('',#431,#436,#232,.T.);
#547=EDGE_CURVE('',#432,#437,#233,.T.);
#548=EDGE_CURVE('',#438,#439,#234,.T.);
#549=EDGE_CURVE('',#439,#440,#235,.T.);
#550=EDGE_CURVE('',#441,#440,#236,.T.);
#551=EDGE_CURVE('',#438,#441,#237,.T.);
#552=EDGE_CURVE('',#442,#438,#238,.T.);
#553=EDGE_CURVE('',#443,#441,#239,.T.);
#554=EDGE_CURVE('',#442,#443,#240,.T.);
#555=EDGE_CURVE('',#444,#442,#241,.T.);
#556=EDGE_CURVE('',#445,#443,#242,.T.);
#557=EDGE_CURVE('',#444,#445,#243,.T.);
#558=EDGE_CURVE('',#439,#444,#244,.T.);
#559=EDGE_CURVE('',#440,#445,#245,.T.);
#560=EDGE_CURVE('',#446,#447,#246,.T.);
#561=EDGE_CURVE('',#446,#448,#247,.T.);
#562=EDGE_CURVE('',#449,#448,#248,.T.);
#563=EDGE_CURVE('',#447,#449,#249,.T.);
#564=EDGE_CURVE('',#447,#450,#250,.T.);
#565=EDGE_CURVE('',#451,#449,#251,.T.);
#566=EDGE_CURVE('',#450,#451,#252,.T.);
#567=EDGE_CURVE('',#450,#452,#253,.T.);
#568=EDGE_CURVE('',#453,#451,#254,.T.);
#569=EDGE_CURVE('',#452,#453,#255,.T.);
#570=EDGE_CURVE('',#452,#454,#256,.T.);
#571=EDGE_CURVE('',#455,#453,#257,.T.);
#572=EDGE_CURVE('',#454,#455,#258,.T.);
#573=EDGE_CURVE('',#454,#456,#259,.T.);
#574=EDGE_CURVE('',#457,#455,#260,.T.);
#575=EDGE_CURVE('',#456,#457,#261,.T.);
#576=EDGE_CURVE('',#456,#446,#262,.T.);
#577=EDGE_CURVE('',#448,#457,#263,.T.);
#578=ORIENTED_EDGE('',*,*,#458,.F.);
#579=ORIENTED_EDGE('',*,*,#459,.T.);
#580=ORIENTED_EDGE('',*,*,#460,.F.);
#581=ORIENTED_EDGE('',*,*,#461,.F.);
#582=ORIENTED_EDGE('',*,*,#462,.F.);
#583=ORIENTED_EDGE('',*,*,#463,.T.);
#584=ORIENTED_EDGE('',*,*,#464,.F.);
#585=ORIENTED_EDGE('',*,*,#459,.F.);
#586=ORIENTED_EDGE('',*,*,#465,.F.);
#587=ORIENTED_EDGE('',*,*,#466,.T.);
#588=ORIENTED_EDGE('',*,*,#467,.F.);
#589=ORIENTED_EDGE('',*,*,#463,.F.);
#590=ORIENTED_EDGE('',*,*,#468,.F.);
#591=ORIENTED_EDGE('',*,*,#461,.T.);
#592=ORIENTED_EDGE('',*,*,#469,.F.);
#593=ORIENTED_EDGE('',*,*,#466,.F.);
#594=ORIENTED_EDGE('',*,*,#470,.F.);
#595=ORIENTED_EDGE('',*,*,#471,.T.);
#596=ORIENTED_EDGE('',*,*,#472,.F.);
#597=ORIENTED_EDGE('',*,*,#473,.F.);
#598=ORIENTED_EDGE('',*,*,#474,.F.);
#599=ORIENTED_EDGE('',*,*,#475,.T.);
#600=ORIENTED_EDGE('',*,*,#476,.F.);
#601=ORIENTED_EDGE('',*,*,#471,.F.);
#602=ORIENTED_EDGE('',*,*,#477,.T.);
#603=ORIENTED_EDGE('',*,*,#478,.T.);
#604=ORIENTED_EDGE('',*,*,#479,.T.);
#605=ORIENTED_EDGE('',*,*,#480,.T.);
#606=ORIENTED_EDGE('',*,*,#476,.T.);
#607=ORIENTED_EDGE('',*,*,#481,.T.);
#608=ORIENTED_EDGE('',*,*,#482,.T.);
#609=ORIENTED_EDGE('',*,*,#472,.T.);
#610=ORIENTED_EDGE('',*,*,#483,.T.);
#611=ORIENTED_EDGE('',*,*,#484,.T.);
#612=ORIENTED_EDGE('',*,*,#485,.T.);
#613=ORIENTED_EDGE('',*,*,#486,.T.);
#614=ORIENTED_EDGE('',*,*,#487,.T.);
#615=ORIENTED_EDGE('',*,*,#474,.T.);
#616=ORIENTED_EDGE('',*,*,#470,.T.);
#617=ORIENTED_EDGE('',*,*,#488,.T.);
#618=ORIENTED_EDGE('',*,*,#489,.T.);
#619=ORIENTED_EDGE('',*,*,#490,.T.);
#620=ORIENTED_EDGE('',*,*,#491,.T.);
#621=ORIENTED_EDGE('',*,*,#492,.T.);
#622=ORIENTED_EDGE('',*,*,#493,.T.);
#623=ORIENTED_EDGE('',*,*,#494,.T.);
#624=ORIENTED_EDGE('',*,*,#495,.T.);
#625=ORIENTED_EDGE('',*,*,#496,.T.);
#626=ORIENTED_EDGE('',*,*,#497,.T.);
#627=ORIENTED_EDGE('',*,*,#498,.T.);
#628=ORIENTED_EDGE('',*,*,#488,.F.);
#629=ORIENTED_EDGE('',*,*,#473,.T.);
#630=ORIENTED_EDGE('',*,*,#482,.F.);
#631=ORIENTED_EDGE('',*,*,#499,.F.);
#632=ORIENTED_EDGE('',*,*,#500,.T.);
#633=ORIENTED_EDGE('',*,*,#501,.F.);
#634=ORIENTED_EDGE('',*,*,#502,.T.);
#635=ORIENTED_EDGE('',*,*,#499,.T.);
#636=ORIENTED_EDGE('',*,*,#481,.F.);
#637=ORIENTED_EDGE('',*,*,#475,.F.);
#638=ORIENTED_EDGE('',*,*,#487,.F.);
#639=ORIENTED_EDGE('',*,*,#460,.T.);
#640=ORIENTED_EDGE('',*,*,#464,.T.);
#641=ORIENTED_EDGE('',*,*,#467,.T.);
#642=ORIENTED_EDGE('',*,*,#469,.T.);
#643=ORIENTED_EDGE('',*,*,#485,.F.);
#644=ORIENTED_EDGE('',*,*,#503,.T.);
#645=ORIENTED_EDGE('',*,*,#504,.T.);
#646=ORIENTED_EDGE('',*,*,#503,.F.);
#647=ORIENTED_EDGE('',*,*,#484,.F.);
#648=ORIENTED_EDGE('',*,*,#505,.T.);
#649=ORIENTED_EDGE('',*,*,#506,.T.);
#650=ORIENTED_EDGE('',*,*,#505,.F.);
#651=ORIENTED_EDGE('',*,*,#483,.F.);
#652=ORIENTED_EDGE('',*,*,#507,.T.);
#653=ORIENTED_EDGE('',*,*,#508,.T.);
#654=ORIENTED_EDGE('',*,*,#507,.F.);
#655=ORIENTED_EDGE('',*,*,#509,.F.);
#656=ORIENTED_EDGE('',*,*,#510,.T.);
#657=ORIENTED_EDGE('',*,*,#480,.F.);
#658=ORIENTED_EDGE('',*,*,#511,.F.);
#659=ORIENTED_EDGE('',*,*,#458,.T.);
#660=ORIENTED_EDGE('',*,*,#468,.T.);
#661=ORIENTED_EDGE('',*,*,#465,.T.);
#662=ORIENTED_EDGE('',*,*,#462,.T.);
#663=ORIENTED_EDGE('',*,*,#512,.F.);
#664=ORIENTED_EDGE('',*,*,#511,.T.);
#665=ORIENTED_EDGE('',*,*,#479,.F.);
#666=ORIENTED_EDGE('',*,*,#513,.F.);
#667=ORIENTED_EDGE('',*,*,#514,.F.);
#668=ORIENTED_EDGE('',*,*,#513,.T.);
#669=ORIENTED_EDGE('',*,*,#478,.F.);
#670=ORIENTED_EDGE('',*,*,#515,.F.);
#671=ORIENTED_EDGE('',*,*,#516,.F.);
#672=ORIENTED_EDGE('',*,*,#515,.T.);
#673=ORIENTED_EDGE('',*,*,#477,.F.);
#674=ORIENTED_EDGE('',*,*,#510,.F.);
#675=ORIENTED_EDGE('',*,*,#517,.T.);
#676=ORIENTED_EDGE('',*,*,#518,.T.);
#677=ORIENTED_EDGE('',*,*,#497,.F.);
#678=ORIENTED_EDGE('',*,*,#519,.F.);
#679=ORIENTED_EDGE('',*,*,#520,.T.);
#680=ORIENTED_EDGE('',*,*,#519,.T.);
#681=ORIENTED_EDGE('',*,*,#496,.F.);
#682=ORIENTED_EDGE('',*,*,#521,.F.);
#683=ORIENTED_EDGE('',*,*,#522,.T.);
#684=ORIENTED_EDGE('',*,*,#521,.T.);
#685=ORIENTED_EDGE('',*,*,#495,.F.);
#686=ORIENTED_EDGE('',*,*,#523,.F.);
#687=ORIENTED_EDGE('',*,*,#524,.T.);
#688=ORIENTED_EDGE('',*,*,#523,.T.);
#689=ORIENTED_EDGE('',*,*,#494,.F.);
#690=ORIENTED_EDGE('',*,*,#518,.F.);
#691=ORIENTED_EDGE('',*,*,#525,.T.);
#692=ORIENTED_EDGE('',*,*,#526,.T.);
#693=ORIENTED_EDGE('',*,*,#493,.F.);
#694=ORIENTED_EDGE('',*,*,#527,.F.);
#695=ORIENTED_EDGE('',*,*,#528,.T.);
#696=ORIENTED_EDGE('',*,*,#527,.T.);
#697=ORIENTED_EDGE('',*,*,#492,.F.);
#698=ORIENTED_EDGE('',*,*,#529,.F.);
#699=ORIENTED_EDGE('',*,*,#530,.T.);
#700=ORIENTED_EDGE('',*,*,#529,.T.);
#701=ORIENTED_EDGE('',*,*,#491,.F.);
#702=ORIENTED_EDGE('',*,*,#531,.F.);
#703=ORIENTED_EDGE('',*,*,#532,.T.);
#704=ORIENTED_EDGE('',*,*,#531,.T.);
#705=ORIENTED_EDGE('',*,*,#490,.F.);
#706=ORIENTED_EDGE('',*,*,#526,.F.);
#707=ORIENTED_EDGE('',*,*,#533,.F.);
#708=ORIENTED_EDGE('',*,*,#534,.T.);
#709=ORIENTED_EDGE('',*,*,#489,.F.);
#710=ORIENTED_EDGE('',*,*,#498,.F.);
#711=ORIENTED_EDGE('',*,*,#535,.F.);
#712=ORIENTED_EDGE('',*,*,#501,.T.);
#713=ORIENTED_EDGE('',*,*,#486,.F.);
#714=ORIENTED_EDGE('',*,*,#534,.F.);
#715=ORIENTED_EDGE('',*,*,#516,.T.);
#716=ORIENTED_EDGE('',*,*,#509,.T.);
#717=ORIENTED_EDGE('',*,*,#512,.T.);
#718=ORIENTED_EDGE('',*,*,#514,.T.);
#719=ORIENTED_EDGE('',*,*,#504,.F.);
#720=ORIENTED_EDGE('',*,*,#506,.F.);
#721=ORIENTED_EDGE('',*,*,#508,.F.);
#722=ORIENTED_EDGE('',*,*,#532,.F.);
#723=ORIENTED_EDGE('',*,*,#525,.F.);
#724=ORIENTED_EDGE('',*,*,#528,.F.);
#725=ORIENTED_EDGE('',*,*,#530,.F.);
#726=ORIENTED_EDGE('',*,*,#524,.F.);
#727=ORIENTED_EDGE('',*,*,#517,.F.);
#728=ORIENTED_EDGE('',*,*,#520,.F.);
#729=ORIENTED_EDGE('',*,*,#522,.F.);
#730=ORIENTED_EDGE('',*,*,#535,.T.);
#731=ORIENTED_EDGE('',*,*,#533,.T.);
#732=ORIENTED_EDGE('',*,*,#500,.F.);
#733=ORIENTED_EDGE('',*,*,#502,.F.);
#734=ORIENTED_EDGE('',*,*,#536,.T.);
#735=ORIENTED_EDGE('',*,*,#537,.T.);
#736=ORIENTED_EDGE('',*,*,#538,.F.);
#737=ORIENTED_EDGE('',*,*,#539,.F.);
#738=ORIENTED_EDGE('',*,*,#540,.T.);
#739=ORIENTED_EDGE('',*,*,#539,.T.);
#740=ORIENTED_EDGE('',*,*,#541,.F.);
#741=ORIENTED_EDGE('',*,*,#542,.F.);
#742=ORIENTED_EDGE('',*,*,#543,.T.);
#743=ORIENTED_EDGE('',*,*,#542,.T.);
#744=ORIENTED_EDGE('',*,*,#544,.F.);
#745=ORIENTED_EDGE('',*,*,#545,.F.);
#746=ORIENTED_EDGE('',*,*,#546,.T.);
#747=ORIENTED_EDGE('',*,*,#545,.T.);
#748=ORIENTED_EDGE('',*,*,#547,.F.);
#749=ORIENTED_EDGE('',*,*,#537,.F.);
#750=ORIENTED_EDGE('',*,*,#548,.T.);
#751=ORIENTED_EDGE('',*,*,#549,.T.);
#752=ORIENTED_EDGE('',*,*,#550,.F.);
#753=ORIENTED_EDGE('',*,*,#551,.F.);
#754=ORIENTED_EDGE('',*,*,#552,.T.);
#755=ORIENTED_EDGE('',*,*,#551,.T.);
#756=ORIENTED_EDGE('',*,*,#553,.F.);
#757=ORIENTED_EDGE('',*,*,#554,.F.);
#758=ORIENTED_EDGE('',*,*,#555,.T.);
#759=ORIENTED_EDGE('',*,*,#554,.T.);
#760=ORIENTED_EDGE('',*,*,#556,.F.);
#761=ORIENTED_EDGE('',*,*,#557,.F.);
#762=ORIENTED_EDGE('',*,*,#558,.T.);
#763=ORIENTED_EDGE('',*,*,#557,.T.);
#764=ORIENTED_EDGE('',*,*,#559,.F.);
#765=ORIENTED_EDGE('',*,*,#549,.F.);
#766=ORIENTED_EDGE('',*,*,#560,.F.);
#767=ORIENTED_EDGE('',*,*,#561,.T.);
#768=ORIENTED_EDGE('',*,*,#562,.F.);
#769=ORIENTED_EDGE('',*,*,#563,.F.);
#770=ORIENTED_EDGE('',*,*,#564,.F.);
#771=ORIENTED_EDGE('',*,*,#563,.T.);
#772=ORIENTED_EDGE('',*,*,#565,.F.);
#773=ORIENTED_EDGE('',*,*,#566,.F.);
#774=ORIENTED_EDGE('',*,*,#567,.F.);
#775=ORIENTED_EDGE('',*,*,#566,.T.);
#776=ORIENTED_EDGE('',*,*,#568,.F.);
#777=ORIENTED_EDGE('',*,*,#569,.F.);
#778=ORIENTED_EDGE('',*,*,#570,.F.);
#779=ORIENTED_EDGE('',*,*,#569,.T.);
#780=ORIENTED_EDGE('',*,*,#571,.F.);
#781=ORIENTED_EDGE('',*,*,#572,.F.);
#782=ORIENTED_EDGE('',*,*,#573,.F.);
#783=ORIENTED_EDGE('',*,*,#572,.T.);
#784=ORIENTED_EDGE('',*,*,#574,.F.);
#785=ORIENTED_EDGE('',*,*,#575,.F.);
#786=ORIENTED_EDGE('',*,*,#576,.F.);
#787=ORIENTED_EDGE('',*,*,#575,.T.);
#788=ORIENTED_EDGE('',*,*,#577,.F.);
#789=ORIENTED_EDGE('',*,*,#561,.F.);
#790=ORIENTED_EDGE('',*,*,#577,.T.);
#791=ORIENTED_EDGE('',*,*,#574,.T.);
#792=ORIENTED_EDGE('',*,*,#571,.T.);
#793=ORIENTED_EDGE('',*,*,#568,.T.);
#794=ORIENTED_EDGE('',*,*,#565,.T.);
#795=ORIENTED_EDGE('',*,*,#562,.T.);
#796=ORIENTED_EDGE('',*,*,#559,.T.);
#797=ORIENTED_EDGE('',*,*,#556,.T.);
#798=ORIENTED_EDGE('',*,*,#553,.T.);
#799=ORIENTED_EDGE('',*,*,#550,.T.);
#800=ORIENTED_EDGE('',*,*,#547,.T.);
#801=ORIENTED_EDGE('',*,*,#544,.T.);
#802=ORIENTED_EDGE('',*,*,#541,.T.);
#803=ORIENTED_EDGE('',*,*,#538,.T.);
#804=ORIENTED_EDGE('',*,*,#576,.T.);
#805=ORIENTED_EDGE('',*,*,#560,.T.);
#806=ORIENTED_EDGE('',*,*,#564,.T.);
#807=ORIENTED_EDGE('',*,*,#567,.T.);
#808=ORIENTED_EDGE('',*,*,#570,.T.);
#809=ORIENTED_EDGE('',*,*,#573,.T.);
#810=ORIENTED_EDGE('',*,*,#558,.F.);
#811=ORIENTED_EDGE('',*,*,#548,.F.);
#812=ORIENTED_EDGE('',*,*,#552,.F.);
#813=ORIENTED_EDGE('',*,*,#555,.F.);
#814=ORIENTED_EDGE('',*,*,#546,.F.);
#815=ORIENTED_EDGE('',*,*,#536,.F.);
#816=ORIENTED_EDGE('',*,*,#540,.F.);
#817=ORIENTED_EDGE('',*,*,#543,.F.);
#818=PLANE('',#918);
#819=PLANE('',#919);
#820=PLANE('',#920);
#821=PLANE('',#921);
#822=PLANE('',#922);
#823=PLANE('',#923);
#824=PLANE('',#924);
#825=PLANE('',#928);
#826=PLANE('',#929);
#827=PLANE('',#930);
#828=PLANE('',#937);
#829=PLANE('',#938);
#830=PLANE('',#939);
#831=PLANE('',#940);
#832=PLANE('',#941);
#833=PLANE('',#942);
#834=PLANE('',#943);
#835=PLANE('',#944);
#836=PLANE('',#945);
#837=PLANE('',#946);
#838=PLANE('',#947);
#839=PLANE('',#948);
#840=PLANE('',#949);
#841=PLANE('',#950);
#842=PLANE('',#951);
#843=PLANE('',#952);
#844=PLANE('',#953);
#845=PLANE('',#954);
#846=PLANE('',#955);
#847=PLANE('',#956);
#848=PLANE('',#957);
#849=PLANE('',#958);
#850=PLANE('',#959);
#851=PLANE('',#960);
#852=PLANE('',#961);
#853=PLANE('',#962);
#854=PLANE('',#963);
#855=PLANE('',#964);
#856=PLANE('',#965);
#857=PLANE('',#966);
#858=PLANE('',#967);
#859=ADVANCED_FACE('',(#44),#818,.F.);
#860=ADVANCED_FACE('',(#45),#819,.F.);
#861=ADVANCED_FACE('',(#46),#820,.F.);
#862=ADVANCED_FACE('',(#47),#821,.F.);
#863=ADVANCED_FACE('',(#48),#822,.T.);
#864=ADVANCED_FACE('',(#49),#823,.T.);
#865=ADVANCED_FACE('',(#50,#26,#27,#28,#29),#824,.T.);
#866=ADVANCED_FACE('',(#51,#30,#31),#825,.T.);
#867=ADVANCED_FACE('',(#52),#826,.T.);
#868=ADVANCED_FACE('',(#53,#32),#827,.T.);
#869=ADVANCED_FACE('',(#54),#17,.F.);
#870=ADVANCED_FACE('',(#55),#18,.F.);
#871=ADVANCED_FACE('',(#56),#19,.F.);
#872=ADVANCED_FACE('',(#57,#33),#828,.T.);
#873=ADVANCED_FACE('',(#58),#829,.T.);
#874=ADVANCED_FACE('',(#59),#830,.T.);
#875=ADVANCED_FACE('',(#60),#831,.T.);
#876=ADVANCED_FACE('',(#61),#832,.T.);
#877=ADVANCED_FACE('',(#62),#833,.T.);
#878=ADVANCED_FACE('',(#63),#834,.T.);
#879=ADVANCED_FACE('',(#64),#835,.T.);
#880=ADVANCED_FACE('',(#65),#836,.T.);
#881=ADVANCED_FACE('',(#66),#837,.T.);
#882=ADVANCED_FACE('',(#67),#838,.T.);
#883=ADVANCED_FACE('',(#68),#839,.T.);
#884=ADVANCED_FACE('',(#69),#840,.T.);
#885=ADVANCED_FACE('',(#70),#841,.T.);
#886=ADVANCED_FACE('',(#71,#34,#35,#36,#37,#38,#39),#842,.F.);
#887=ADVANCED_FACE('',(#72),#843,.T.);
#888=ADVANCED_FACE('',(#73),#844,.T.);
#889=ADVANCED_FACE('',(#74),#845,.T.);
#890=ADVANCED_FACE('',(#75),#846,.T.);
#891=ADVANCED_FACE('',(#76),#847,.T.);
#892=ADVANCED_FACE('',(#77),#848,.T.);
#893=ADVANCED_FACE('',(#78),#849,.T.);
#894=ADVANCED_FACE('',(#79),#850,.T.);
#895=ADVANCED_FACE('',(#80),#851,.T.);
#896=ADVANCED_FACE('',(#81),#852,.T.);
#897=ADVANCED_FACE('',(#82),#853,.T.);
#898=ADVANCED_FACE('',(#83),#854,.T.);
#899=ADVANCED_FACE('',(#84),#855,.T.);
#900=ADVANCED_FACE('',(#85),#856,.T.);
#901=ADVANCED_FACE('',(#86,#40,#41),#857,.T.);
#902=ADVANCED_FACE('',(#87,#42,#43),#858,.F.);
#903=CLOSED_SHELL('',(#859,#860,#861,#862,#863,#864,#865,#866,#867,#868,
#869,#870,#871,#872,#873,#874,#875,#876,#877,#878,#879,#880,#881,#882,#883,
#884,#885,#886));
#904=CLOSED_SHELL('',(#887,#888,#889,#890,#891,#892,#893,#894,#895,#896,
#897,#898,#899,#900,#901,#902));
#905=DERIVED_UNIT_ELEMENT(#907,1.);
#906=DERIVED_UNIT_ELEMENT(#1434,-3.);
#907=(
MASS_UNIT()
NAMED_UNIT(*)
SI_UNIT(.KILO.,.GRAM.)
);
#908=DERIVED_UNIT((#905,#906));
#909=MEASURE_REPRESENTATION_ITEM('density measure',
POSITIVE_RATIO_MEASURE(7850.),#908);
#910=PROPERTY_DEFINITION_REPRESENTATION(#915,#912);
#911=PROPERTY_DEFINITION_REPRESENTATION(#916,#913);
#912=REPRESENTATION('material name',(#914),#1431);
#913=REPRESENTATION('density',(#909),#1431);
#914=DESCRIPTIVE_REPRESENTATION_ITEM('Steel','Steel');
#915=PROPERTY_DEFINITION('material property','material name',#1441);
#916=PROPERTY_DEFINITION('material property','density of part',#1441);
#917=AXIS2_PLACEMENT_3D('',#1184,#968,#969);
#918=AXIS2_PLACEMENT_3D('',#1185,#970,#971);
#919=AXIS2_PLACEMENT_3D('',#1194,#976,#977);
#920=AXIS2_PLACEMENT_3D('',#1200,#981,#982);
#921=AXIS2_PLACEMENT_3D('',#1206,#986,#987);
#922=AXIS2_PLACEMENT_3D('',#1209,#990,#991);
#923=AXIS2_PLACEMENT_3D('',#1218,#996,#997);
#924=AXIS2_PLACEMENT_3D('',#1224,#1001,#1002);
#925=AXIS2_PLACEMENT_3D('',#1237,#1009,#1010);
#926=AXIS2_PLACEMENT_3D('',#1239,#1011,#1012);
#927=AXIS2_PLACEMENT_3D('',#1241,#1013,#1014);
#928=AXIS2_PLACEMENT_3D('',#1242,#1015,#1016);
#929=AXIS2_PLACEMENT_3D('',#1266,#1029,#1030);
#930=AXIS2_PLACEMENT_3D('',#1272,#1034,#1035);
#931=AXIS2_PLACEMENT_3D('',#1276,#1038,#1039);
#932=AXIS2_PLACEMENT_3D('',#1279,#1041,#1042);
#933=AXIS2_PLACEMENT_3D('',#1280,#1043,#1044);
#934=AXIS2_PLACEMENT_3D('',#1283,#1046,#1047);
#935=AXIS2_PLACEMENT_3D('',#1284,#1048,#1049);
#936=AXIS2_PLACEMENT_3D('',#1287,#1051,#1052);
#937=AXIS2_PLACEMENT_3D('',#1288,#1053,#1054);
#938=AXIS2_PLACEMENT_3D('',#1294,#1058,#1059);
#939=AXIS2_PLACEMENT_3D('',#1298,#1062,#1063);
#940=AXIS2_PLACEMENT_3D('',#1302,#1066,#1067);
#941=AXIS2_PLACEMENT_3D('',#1304,#1069,#1070);
#942=AXIS2_PLACEMENT_3D('',#1310,#1074,#1075);
#943=AXIS2_PLACEMENT_3D('',#1314,#1078,#1079);
#944=AXIS2_PLACEMENT_3D('',#1318,#1082,#1083);
#945=AXIS2_PLACEMENT_3D('',#1320,#1085,#1086);
#946=AXIS2_PLACEMENT_3D('',#1326,#1090,#1091);
#947=AXIS2_PLACEMENT_3D('',#1330,#1094,#1095);
#948=AXIS2_PLACEMENT_3D('',#1334,#1098,#1099);
#949=AXIS2_PLACEMENT_3D('',#1336,#1101,#1102);
#950=AXIS2_PLACEMENT_3D('',#1340,#1105,#1106);
#951=AXIS2_PLACEMENT_3D('',#1342,#1108,#1109);
#952=AXIS2_PLACEMENT_3D('',#1343,#1110,#1111);
#953=AXIS2_PLACEMENT_3D('',#1352,#1116,#1117);
#954=AXIS2_PLACEMENT_3D('',#1358,#1121,#1122);
#955=AXIS2_PLACEMENT_3D('',#1364,#1126,#1127);
#956=AXIS2_PLACEMENT_3D('',#1367,#1130,#1131);
#957=AXIS2_PLACEMENT_3D('',#1376,#1136,#1137);
#958=AXIS2_PLACEMENT_3D('',#1382,#1141,#1142);
#959=AXIS2_PLACEMENT_3D('',#1388,#1146,#1147);
#960=AXIS2_PLACEMENT_3D('',#1391,#1150,#1151);
#961=AXIS2_PLACEMENT_3D('',#1400,#1156,#1157);
#962=AXIS2_PLACEMENT_3D('',#1406,#1161,#1162);
#963=AXIS2_PLACEMENT_3D('',#1412,#1166,#1167);
#964=AXIS2_PLACEMENT_3D('',#1418,#1171,#1172);
#965=AXIS2_PLACEMENT_3D('',#1424,#1176,#1177);
#966=AXIS2_PLACEMENT_3D('',#1427,#1180,#1181);
#967=AXIS2_PLACEMENT_3D('',#1428,#1182,#1183);
#968=DIRECTION('axis',(0.,0.,1.));
#969=DIRECTION('refdir',(1.,0.,0.));
#970=DIRECTION('center_axis',(0.,1.,0.));
#971=DIRECTION('ref_axis',(0.,0.,1.));
#972=DIRECTION('',(1.224646799147E-16,0.,1.));
#973=DIRECTION('',(1.,0.,0.));
#974=DIRECTION('',(-1.224646799147E-16,0.,-1.));
#975=DIRECTION('',(1.,0.,0.));
#976=DIRECTION('center_axis',(0.,3.09890881599428E-14,-1.));
#977=DIRECTION('ref_axis',(0.,1.,3.09890881599428E-14));
#978=DIRECTION('',(3.79506876235581E-30,1.,3.09890881599428E-14));
#979=DIRECTION('',(1.,0.,0.));
#980=DIRECTION('',(-3.79506876235581E-30,-1.,-3.09890881599428E-14));
#981=DIRECTION('center_axis',(0.,-1.,-6.99537367019569E-17));
#982=DIRECTION('ref_axis',(0.,6.99537367019569E-17,-1.));
#983=DIRECTION('',(-1.224646799147E-16,6.99537367019569E-17,-1.));
#984=DIRECTION('',(1.,0.,0.));
#985=DIRECTION('',(1.224646799147E-16,-6.99537367019569E-17,1.));
#986=DIRECTION('center_axis',(0.,0.,1.));
#987=DIRECTION('ref_axis',(0.,-1.,0.));
#988=DIRECTION('',(0.,-1.,0.));
#989=DIRECTION('',(0.,1.,0.));
#990=DIRECTION('center_axis',(-1.,0.,1.224646799147E-16));
#991=DIRECTION('ref_axis',(1.224646799147E-16,1.57772181044202E-30,1.));
#992=DIRECTION('',(-1.224646799147E-16,-1.57772181044202E-30,-1.));
#993=DIRECTION('',(0.,1.,0.));
#994=DIRECTION('',(1.224646799147E-16,1.57772181044202E-30,1.));
#995=DIRECTION('',(0.,1.,0.));
#996=DIRECTION('center_axis',(-1.224646799147E-16,0.,-1.));
#997=DIRECTION('ref_axis',(-1.,-3.83167548838817E-47,1.224646799147E-16));
#998=DIRECTION('',(1.,3.83167548838817E-47,-1.224646799147E-16));
#999=DIRECTION('',(0.,1.,0.));
#1000=DIRECTION('',(-1.,-3.83167548838817E-47,1.224646799147E-16));
#1001=DIRECTION('center_axis',(-2.31531951394105E-46,1.,-1.57772181044202E-30));
#1002=DIRECTION('ref_axis',(1.,3.83167548838817E-47,-1.224646799147E-16));
#1003=DIRECTION('',(1.,3.83167548838817E-47,-1.224646799147E-16));
#1004=DIRECTION('',(-1.224646799147E-16,-1.57772181044202E-30,-1.));
#1005=DIRECTION('',(-1.,-3.83167548838817E-47,1.224646799147E-16));
#1006=DIRECTION('',(1.224646799147E-16,1.57772181044202E-30,1.));
#1007=DIRECTION('',(-1.224646799147E-16,-1.57772181044202E-30,-1.));
#1008=DIRECTION('',(1.,3.83167548838817E-47,-1.224646799147E-16));
#1009=DIRECTION('center_axis',(2.31531951394105E-46,-1.,1.57772181044202E-30));
#1010=DIRECTION('ref_axis',(1.,3.83167548838817E-47,-1.224646799147E-16));
#1011=DIRECTION('center_axis',(2.31531951394105E-46,-1.,1.57772181044202E-30));
#1012=DIRECTION('ref_axis',(1.,3.83167548838817E-47,-1.224646799147E-16));
#1013=DIRECTION('center_axis',(2.31531951394105E-46,-1.,1.57772181044202E-30));
#1014=DIRECTION('ref_axis',(1.,3.83167548838817E-47,-1.224646799147E-16));
#1015=DIRECTION('center_axis',(0.,1.,0.));
#1016=DIRECTION('ref_axis',(0.,0.,1.));
#1017=DIRECTION('',(-0.95018354489658,4.91761566137232E-31,0.311690922241519));
#1018=DIRECTION('',(1.224646799147E-16,1.57772181044202E-30,1.));
#1019=DIRECTION('',(-1.,-3.83167548838817E-47,1.224646799147E-16));
#1020=DIRECTION('',(1.224646799147E-16,1.57772181044202E-30,1.));
#1021=DIRECTION('',(-1.,-3.83167548838817E-47,1.224646799147E-16));
#1022=DIRECTION('',(-1.224646799147E-16,-1.57772181044202E-30,-1.));
#1023=DIRECTION('',(1.,3.83167548838817E-47,-1.224646799147E-16));
#1024=DIRECTION('',(1.224646799147E-16,1.57772181044202E-30,1.));
#1025=DIRECTION('',(-1.,1.29592840706105E-16,1.224646799147E-16));
#1026=DIRECTION('',(-1.224646799147E-16,-1.57772181044202E-30,-1.));
#1027=DIRECTION('',(1.,3.83167548838817E-47,-1.224646799147E-16));
#1028=DIRECTION('',(1.224646799147E-16,-1.40814460013761E-16,1.));
#1029=DIRECTION('center_axis',(1.224646799147E-16,0.,1.));
#1030=DIRECTION('ref_axis',(1.,3.83167548838817E-47,-1.224646799147E-16));
#1031=DIRECTION('',(0.,1.,0.));
#1032=DIRECTION('',(0.,1.,0.));
#1033=DIRECTION('',(1.,3.83167548838817E-47,-1.224646799147E-16));
#1034=DIRECTION('center_axis',(1.,0.,-1.224646799147E-16));
#1035=DIRECTION('ref_axis',(-1.224646799147E-16,-1.57772181044202E-30,-1.));
#1036=DIRECTION('',(0.,1.,0.));
#1037=DIRECTION('',(-1.224646799147E-16,-1.57772181044202E-30,-1.));
#1038=DIRECTION('center_axis',(0.,1.,0.));
#1039=DIRECTION('ref_axis',(1.,0.,-1.224646799147E-16));
#1040=DIRECTION('',(0.,-1.,0.));
#1041=DIRECTION('center_axis',(2.31531951394105E-46,-1.,1.57772181044202E-30));
#1042=DIRECTION('ref_axis',(1.,3.83167548838817E-47,-1.224646799147E-16));
#1043=DIRECTION('center_axis',(0.,1.,0.));
#1044=DIRECTION('ref_axis',(1.,0.,-1.224646799147E-16));
#1045=DIRECTION('',(0.,-1.,0.));
#1046=DIRECTION('center_axis',(2.31531951394105E-46,-1.,1.57772181044202E-30));
#1047=DIRECTION('ref_axis',(1.,3.83167548838817E-47,-1.224646799147E-16));
#1048=DIRECTION('center_axis',(0.,1.,0.));
#1049=DIRECTION('ref_axis',(1.,0.,-1.224646799147E-16));
#1050=DIRECTION('',(0.,-1.,0.));
#1051=DIRECTION('center_axis',(2.31531951394105E-46,-1.,1.57772181044202E-30));
#1052=DIRECTION('ref_axis',(1.,3.83167548838817E-47,-1.224646799147E-16));
#1053=DIRECTION('center_axis',(-1.,0.,1.224646799147E-16));
#1054=DIRECTION('ref_axis',(1.224646799147E-16,1.57772181044202E-30,1.));
#1055=DIRECTION('',(-1.224646799147E-16,-1.57772181044202E-30,-1.));
#1056=DIRECTION('',(0.,1.,0.));
#1057=DIRECTION('',(0.,1.,0.));
#1058=DIRECTION('center_axis',(-1.224646799147E-16,0.,-1.));
#1059=DIRECTION('ref_axis',(-1.,-3.83167548838817E-47,1.224646799147E-16));
#1060=DIRECTION('',(1.,3.83167548838817E-47,-1.224646799147E-16));
#1061=DIRECTION('',(0.,1.,0.));
#1062=DIRECTION('center_axis',(1.,0.,-1.224646799147E-16));
#1063=DIRECTION('ref_axis',(-1.224646799147E-16,-1.57772181044202E-30,-1.));
#1064=DIRECTION('',(1.224646799147E-16,1.57772181044202E-30,1.));
#1065=DIRECTION('',(0.,1.,0.));
#1066=DIRECTION('center_axis',(1.224646799147E-16,0.,1.));
#1067=DIRECTION('ref_axis',(1.,3.83167548838817E-47,-1.224646799147E-16));
#1068=DIRECTION('',(-1.,-3.83167548838817E-47,1.224646799147E-16));
#1069=DIRECTION('center_axis',(-1.,0.,1.224646799147E-16));
#1070=DIRECTION('ref_axis',(1.224646799147E-16,-1.40814460013761E-16,1.));
#1071=DIRECTION('',(1.224646799147E-16,-1.40814460013761E-16,1.));
#1072=DIRECTION('',(0.,1.,0.));
#1073=DIRECTION('',(0.,1.,0.));
#1074=DIRECTION('center_axis',(1.224646799147E-16,0.,1.));
#1075=DIRECTION('ref_axis',(1.,3.83167548838817E-47,-1.224646799147E-16));
#1076=DIRECTION('',(1.,3.83167548838817E-47,-1.224646799147E-16));
#1077=DIRECTION('',(0.,1.,0.));
#1078=DIRECTION('center_axis',(1.,0.,-1.224646799147E-16));
#1079=DIRECTION('ref_axis',(-1.224646799147E-16,-1.57772181044202E-30,-1.));
#1080=DIRECTION('',(-1.224646799147E-16,-1.57772181044202E-30,-1.));
#1081=DIRECTION('',(0.,1.,0.));
#1082=DIRECTION('center_axis',(-1.224646799147E-16,0.,-1.));
#1083=DIRECTION('ref_axis',(-1.,1.29592840706105E-16,1.224646799147E-16));
#1084=DIRECTION('',(-1.,1.29592840706105E-16,1.224646799147E-16));
#1085=DIRECTION('center_axis',(-1.,0.,1.224646799147E-16));
#1086=DIRECTION('ref_axis',(1.224646799147E-16,1.57772181044202E-30,1.));
#1087=DIRECTION('',(1.224646799147E-16,1.57772181044202E-30,1.));
#1088=DIRECTION('',(0.,1.,0.));
#1089=DIRECTION('',(0.,1.,0.));
#1090=DIRECTION('center_axis',(1.224646799147E-16,0.,1.));
#1091=DIRECTION('ref_axis',(1.,3.83167548838817E-47,-1.224646799147E-16));
#1092=DIRECTION('',(1.,3.83167548838817E-47,-1.224646799147E-16));
#1093=DIRECTION('',(0.,1.,0.));
#1094=DIRECTION('center_axis',(1.,0.,-1.224646799147E-16));
#1095=DIRECTION('ref_axis',(-1.224646799147E-16,-1.57772181044202E-30,-1.));
#1096=DIRECTION('',(-1.224646799147E-16,-1.57772181044202E-30,-1.));
#1097=DIRECTION('',(0.,1.,0.));
#1098=DIRECTION('center_axis',(-1.224646799147E-16,0.,-1.));
#1099=DIRECTION('ref_axis',(-1.,-3.83167548838817E-47,1.224646799147E-16));
#1100=DIRECTION('',(-1.,-3.83167548838817E-47,1.224646799147E-16));
#1101=DIRECTION('center_axis',(-1.,0.,1.224646799147E-16));
#1102=DIRECTION('ref_axis',(1.224646799147E-16,1.57772181044202E-30,1.));
#1103=DIRECTION('',(-1.224646799147E-16,-1.57772181044202E-30,-1.));
#1104=DIRECTION('',(0.,1.,0.));
#1105=DIRECTION('center_axis',(-0.311690922241519,0.,-0.95018354489658));
#1106=DIRECTION('ref_axis',(-0.95018354489658,4.91761566137232E-31,0.311690922241519));
#1107=DIRECTION('',(0.95018354489658,-4.91761566137232E-31,-0.311690922241519));
#1108=DIRECTION('center_axis',(-2.31531951394105E-46,1.,-1.57772181044202E-30));
#1109=DIRECTION('ref_axis',(1.,3.83167548838817E-47,-1.224646799147E-16));
#1110=DIRECTION('center_axis',(-1.,0.,1.224646799147E-16));
#1111=DIRECTION('ref_axis',(1.224646799147E-16,1.57772181044202E-30,1.));
#1112=DIRECTION('',(1.224646799147E-16,1.57772181044202E-30,1.));
#1113=DIRECTION('',(0.,1.,0.));
#1114=DIRECTION('',(1.224646799147E-16,1.57772181044202E-30,1.));
#1115=DIRECTION('',(0.,1.,0.));
#1116=DIRECTION('center_axis',(1.224646799147E-16,0.,1.));
#1117=DIRECTION('ref_axis',(1.,3.83167548838817E-47,-1.224646799147E-16));
#1118=DIRECTION('',(1.,3.83167548838817E-47,-1.224646799147E-16));
#1119=DIRECTION('',(1.,3.83167548838817E-47,-1.224646799147E-16));
#1120=DIRECTION('',(0.,1.,0.));
#1121=DIRECTION('center_axis',(1.,0.,-1.224646799147E-16));
#1122=DIRECTION('ref_axis',(-1.224646799147E-16,-1.57772181044202E-30,-1.));
#1123=DIRECTION('',(-1.224646799147E-16,-1.57772181044202E-30,-1.));
#1124=DIRECTION('',(-1.224646799147E-16,-1.57772181044202E-30,-1.));
#1125=DIRECTION('',(0.,1.,0.));
#1126=DIRECTION('center_axis',(-1.224646799147E-16,0.,-1.));
#1127=DIRECTION('ref_axis',(-1.,-3.83167548838817E-47,1.224646799147E-16));
#1128=DIRECTION('',(-1.,-3.83167548838817E-47,1.224646799147E-16));
#1129=DIRECTION('',(-1.,-3.83167548838817E-47,1.224646799147E-16));
#1130=DIRECTION('center_axis',(-1.,0.,1.224646799147E-16));
#1131=DIRECTION('ref_axis',(1.224646799147E-16,-1.40814460013761E-16,1.));
#1132=DIRECTION('',(1.224646799147E-16,-1.40814460013761E-16,1.));
#1133=DIRECTION('',(0.,1.,0.));
#1134=DIRECTION('',(1.224646799147E-16,-1.40814460013761E-16,1.));
#1135=DIRECTION('',(0.,1.,0.));
#1136=DIRECTION('center_axis',(1.224646799147E-16,0.,1.));
#1137=DIRECTION('ref_axis',(1.,3.83167548838817E-47,-1.224646799147E-16));
#1138=DIRECTION('',(1.,3.83167548838817E-47,-1.224646799147E-16));
#1139=DIRECTION('',(1.,3.83167548838817E-47,-1.224646799147E-16));
#1140=DIRECTION('',(0.,1.,0.));
#1141=DIRECTION('center_axis',(1.,0.,-1.224646799147E-16));
#1142=DIRECTION('ref_axis',(-1.224646799147E-16,-1.57772181044202E-30,-1.));
#1143=DIRECTION('',(-1.224646799147E-16,-1.57772181044202E-30,-1.));
#1144=DIRECTION('',(-1.224646799147E-16,-1.57772181044202E-30,-1.));
#1145=DIRECTION('',(0.,1.,0.));
#1146=DIRECTION('center_axis',(-1.224646799147E-16,0.,-1.));
#1147=DIRECTION('ref_axis',(-1.,1.29592840706105E-16,1.224646799147E-16));
#1148=DIRECTION('',(-1.,1.29592840706105E-16,1.224646799147E-16));
#1149=DIRECTION('',(-1.,1.29592840706105E-16,1.224646799147E-16));
#1150=DIRECTION('center_axis',(-1.,0.,1.224646799147E-16));
#1151=DIRECTION('ref_axis',(1.224646799147E-16,1.57772181044202E-30,1.));
#1152=DIRECTION('',(-1.224646799147E-16,-1.57772181044202E-30,-1.));
#1153=DIRECTION('',(0.,1.,0.));
#1154=DIRECTION('',(1.224646799147E-16,1.57772181044202E-30,1.));
#1155=DIRECTION('',(0.,1.,0.));
#1156=DIRECTION('center_axis',(-1.224646799147E-16,0.,-1.));
#1157=DIRECTION('ref_axis',(-1.,-3.83167548838817E-47,1.224646799147E-16));
#1158=DIRECTION('',(1.,3.83167548838817E-47,-1.224646799147E-16));
#1159=DIRECTION('',(-1.,-3.83167548838817E-47,1.224646799147E-16));
#1160=DIRECTION('',(0.,1.,0.));
#1161=DIRECTION('center_axis',(1.,0.,-1.224646799147E-16));
#1162=DIRECTION('ref_axis',(-1.224646799147E-16,-1.57772181044202E-30,-1.));
#1163=DIRECTION('',(1.224646799147E-16,1.57772181044202E-30,1.));
#1164=DIRECTION('',(-1.224646799147E-16,-1.57772181044202E-30,-1.));
#1165=DIRECTION('',(0.,1.,0.));
#1166=DIRECTION('center_axis',(1.224646799147E-16,0.,1.));
#1167=DIRECTION('ref_axis',(1.,3.83167548838817E-47,-1.224646799147E-16));
#1168=DIRECTION('',(-1.,-3.83167548838817E-47,1.224646799147E-16));
#1169=DIRECTION('',(1.,3.83167548838817E-47,-1.224646799147E-16));
#1170=DIRECTION('',(0.,1.,0.));
#1171=DIRECTION('center_axis',(-1.,0.,1.224646799147E-16));
#1172=DIRECTION('ref_axis',(1.224646799147E-16,1.57772181044202E-30,1.));
#1173=DIRECTION('',(-1.224646799147E-16,-1.57772181044202E-30,-1.));
#1174=DIRECTION('',(1.224646799147E-16,1.57772181044202E-30,1.));
#1175=DIRECTION('',(0.,1.,0.));
#1176=DIRECTION('center_axis',(-0.311690922241519,0.,-0.95018354489658));
#1177=DIRECTION('ref_axis',(-0.95018354489658,4.91761566137232E-31,0.311690922241519));
#1178=DIRECTION('',(0.95018354489658,-4.91761566137232E-31,-0.311690922241519));
#1179=DIRECTION('',(-0.95018354489658,4.91761566137232E-31,0.311690922241519));
#1180=DIRECTION('center_axis',(0.,1.,0.));
#1181=DIRECTION('ref_axis',(0.,0.,1.));
#1182=DIRECTION('center_axis',(-2.31531951394105E-46,1.,-1.57772181044202E-30));
#1183=DIRECTION('ref_axis',(1.,3.83167548838817E-47,-1.224646799147E-16));
#1184=CARTESIAN_POINT('',(0.,0.,0.));
#1185=CARTESIAN_POINT('Origin',(-94.698594265565,25.7400874545865,-23.3063681246423));
#1186=CARTESIAN_POINT('',(-94.698594265565,25.7400874545865,-23.3063681246423));
#1187=CARTESIAN_POINT('',(-94.698594265565,25.7400874545865,8.43526790419007));
#1188=CARTESIAN_POINT('',(-94.698594265565,25.7400874545865,-36.4281840623212));
#1189=CARTESIAN_POINT('',(-84.698594265565,25.7400874545865,-23.3063681246423));
#1190=CARTESIAN_POINT('',(-94.698594265565,25.7400874545865,-23.3063681246423));
#1191=CARTESIAN_POINT('',(-84.698594265565,25.7400874545865,8.43526790419007));
#1192=CARTESIAN_POINT('',(-84.698594265565,25.7400874545865,6.07181593767881));
#1193=CARTESIAN_POINT('',(-94.698594265565,25.7400874545865,8.43526790419007));
#1194=CARTESIAN_POINT('Origin',(-94.698594265565,15.9953456558139,-23.3063681246426));
#1195=CARTESIAN_POINT('',(-94.698594265565,15.9953456558139,-23.3063681246426));
#1196=CARTESIAN_POINT('',(-94.698594265565,15.225258907524,-23.3063681246427));
#1197=CARTESIAN_POINT('',(-84.698594265565,15.9953456558139,-23.3063681246426));
#1198=CARTESIAN_POINT('',(-94.698594265565,15.9953456558139,-23.3063681246426));
#1199=CARTESIAN_POINT('',(-84.698594265565,15.2252589075253,-23.3063681246427));
#1200=CARTESIAN_POINT('Origin',(-94.698594265565,15.9953456558139,8.43526790419007));
#1201=CARTESIAN_POINT('',(-94.698594265565,15.9953456558139,8.43526790419007));
#1202=CARTESIAN_POINT('',(-94.698594265565,15.9953456558139,-20.557366047905));
#1203=CARTESIAN_POINT('',(-84.698594265565,15.9953456558139,8.43526790419007));
#1204=CARTESIAN_POINT('',(-94.698594265565,15.9953456558139,8.43526790419007));
#1205=CARTESIAN_POINT('',(-84.698594265565,15.9953456558139,21.942633952095));
#1206=CARTESIAN_POINT('Origin',(-94.698594265565,25.7400874545865,8.43526790419007));
#1207=CARTESIAN_POINT('',(-94.698594265565,20.0976298069106,8.43526790419007));
#1208=CARTESIAN_POINT('',(-84.698594265565,20.0976298069106,8.43526790419007));
#1209=CARTESIAN_POINT('Origin',(15.301405734435,21.4551721592348,-39.55));
#1210=CARTESIAN_POINT('',(15.301405734435,24.9551721592348,35.45));
#1211=CARTESIAN_POINT('',(15.301405734435,24.9551721592348,-39.55));
#1212=CARTESIAN_POINT('',(15.301405734435,24.9551721592348,-39.55));
#1213=CARTESIAN_POINT('',(15.301405734435,28.4551721592348,35.45));
#1214=CARTESIAN_POINT('',(15.301405734435,21.4551721592348,35.45));
#1215=CARTESIAN_POINT('',(15.301405734435,28.4551721592348,-39.55));
#1216=CARTESIAN_POINT('',(15.301405734435,28.4551721592348,-39.55));
#1217=CARTESIAN_POINT('',(15.301405734435,21.4551721592348,-39.55));
#1218=CARTESIAN_POINT('Origin',(15.301405734435,21.4551721592348,35.45));
#1219=CARTESIAN_POINT('',(-84.698594265565,24.9551721592348,35.45));
#1220=CARTESIAN_POINT('',(15.301405734435,24.9551721592348,35.45));
#1221=CARTESIAN_POINT('',(-84.698594265565,28.4551721592348,35.45));
#1222=CARTESIAN_POINT('',(-84.698594265565,21.4551721592348,35.45));
#1223=CARTESIAN_POINT('',(15.301405734435,28.4551721592348,35.45));
#1224=CARTESIAN_POINT('Origin',(-34.698594265565,28.4551721592348,-2.05000000000004));
#1225=CARTESIAN_POINT('',(-94.698594265565,28.4551721592348,45.45));
#1226=CARTESIAN_POINT('',(25.301405734435,28.4551721592348,45.4499999999999));
#1227=CARTESIAN_POINT('',(25.301405734435,28.4551721592348,45.4499999999999));
#1228=CARTESIAN_POINT('',(25.301405734435,28.4551721592348,-49.5500000000001));
#1229=CARTESIAN_POINT('',(25.301405734435,28.4551721592348,-49.55));
#1230=CARTESIAN_POINT('',(-94.698594265565,28.4551721592348,-49.55));
#1231=CARTESIAN_POINT('',(-94.698594265565,28.4551721592348,-49.55));
#1232=CARTESIAN_POINT('',(-94.698594265565,28.4551721592348,45.45));
#1233=CARTESIAN_POINT('',(-84.698594265565,28.4551721592348,-39.55));
#1234=CARTESIAN_POINT('',(-84.698594265565,28.4551721592348,35.45));
#1235=CARTESIAN_POINT('',(-84.698594265565,28.4551721592348,-39.55));
#1236=CARTESIAN_POINT('',(18.851405734435,28.4551721592348,40.4499999999999));
#1237=CARTESIAN_POINT('Origin',(20.301405734435,28.4551721592348,40.4499999999999));
#1238=CARTESIAN_POINT('',(-91.148594265565,28.4551721592348,40.45));
#1239=CARTESIAN_POINT('Origin',(-89.698594265565,28.4551721592348,40.45));
#1240=CARTESIAN_POINT('',(-91.1485942655651,28.4551721592348,-44.5500000000001));
#1241=CARTESIAN_POINT('Origin',(-89.698594265565,28.4551721592348,-44.5500000000001));
#1242=CARTESIAN_POINT('Origin',(-34.698594265565,24.9551721592348,-2.05000000000004));
#1243=CARTESIAN_POINT('',(-52.9329373224524,24.9551721592348,12.7442436206479));
#1244=CARTESIAN_POINT('',(-84.698594265565,24.9551721592348,23.1644060844002));
#1245=CARTESIAN_POINT('',(-84.698594265565,24.9551721592348,23.1644060844002));
#1246=CARTESIAN_POINT('',(-84.698594265565,24.9551721592348,35.45));
#1247=CARTESIAN_POINT('',(-52.9329373224524,24.9551721592348,-39.55));
#1248=CARTESIAN_POINT('',(-84.698594265565,24.9551721592348,-39.55));
#1249=CARTESIAN_POINT('',(-52.9329373224524,24.9551721592348,12.7442436206479));
#1250=CARTESIAN_POINT('',(10.301405734435,24.9551721592348,25.4499999999999));
#1251=CARTESIAN_POINT('',(-49.698594265565,24.9551721592348,25.45));
#1252=CARTESIAN_POINT('',(10.301405734435,24.9551721592348,25.4499999999999));
#1253=CARTESIAN_POINT('',(-49.698594265565,24.9551721592348,-14.55));
#1254=CARTESIAN_POINT('',(-49.698594265565,24.9551721592348,25.45));
#1255=CARTESIAN_POINT('',(10.301405734435,24.9551721592348,-14.5500000000001));
#1256=CARTESIAN_POINT('',(-49.698594265565,24.9551721592348,-14.55));
#1257=CARTESIAN_POINT('',(10.301405734435,24.9551721592348,-14.55));
#1258=CARTESIAN_POINT('',(12.4799438730024,24.9551721592348,-20.3496534919206));
#1259=CARTESIAN_POINT('',(-4.65407400292275,24.9551721592348,-20.3496534919206));
#1260=CARTESIAN_POINT('',(12.4799438730024,24.9551721592348,-20.3496534919206));
#1261=CARTESIAN_POINT('',(-4.65407400292275,24.9551721592348,-36.1182474916654));
#1262=CARTESIAN_POINT('',(-4.65407400292275,24.9551721592348,-20.3496534919206));
#1263=CARTESIAN_POINT('',(12.4799438730024,24.9551721592348,-36.1182474916654));
#1264=CARTESIAN_POINT('',(-4.65407400292275,24.9551721592348,-36.1182474916654));
#1265=CARTESIAN_POINT('',(12.4799438730024,24.9551721592348,-36.1182474916654));
#1266=CARTESIAN_POINT('Origin',(-84.698594265565,14.4551721592348,-39.55));
#1267=CARTESIAN_POINT('',(-52.9329373224524,14.4551721592348,-39.55));
#1268=CARTESIAN_POINT('',(-52.9329373224524,19.9551721592348,-39.55));
#1269=CARTESIAN_POINT('',(-84.698594265565,14.4551721592348,-39.55));
#1270=CARTESIAN_POINT('',(-84.698594265565,14.4551721592348,-39.55));
#1271=CARTESIAN_POINT('',(-84.698594265565,14.4551721592348,-39.55));
#1272=CARTESIAN_POINT('Origin',(-84.698594265565,14.4551721592348,35.45));
#1273=CARTESIAN_POINT('',(-84.698594265565,14.4551721592348,23.1644060844002));
#1274=CARTESIAN_POINT('',(-84.698594265565,14.4551721592348,23.1644060844002));
#1275=CARTESIAN_POINT('',(-84.698594265565,14.4551721592348,35.45));
#1276=CARTESIAN_POINT('Origin',(-89.698594265565,14.4551721592348,-44.5500000000001));
#1277=CARTESIAN_POINT('',(-91.1485942655651,14.4551721592348,-44.5500000000001));
#1278=CARTESIAN_POINT('',(-91.1485942655651,14.4551721592348,-44.5500000000001));
#1279=CARTESIAN_POINT('Origin',(-89.698594265565,14.4551721592348,-44.5500000000001));
#1280=CARTESIAN_POINT('Origin',(-89.698594265565,14.4551721592348,40.45));
#1281=CARTESIAN_POINT('',(-91.148594265565,14.4551721592348,40.45));
#1282=CARTESIAN_POINT('',(-91.148594265565,14.4551721592348,40.45));
#1283=CARTESIAN_POINT('Origin',(-89.698594265565,14.4551721592348,40.45));
#1284=CARTESIAN_POINT('Origin',(20.301405734435,14.4551721592348,40.4499999999999));
#1285=CARTESIAN_POINT('',(18.851405734435,14.4551721592348,40.4499999999999));
#1286=CARTESIAN_POINT('',(18.851405734435,14.4551721592348,40.4499999999999));
#1287=CARTESIAN_POINT('Origin',(20.301405734435,14.4551721592348,40.4499999999999));
#1288=CARTESIAN_POINT('Origin',(-94.698594265565,14.4551721592348,-49.55));
#1289=CARTESIAN_POINT('',(-94.698594265565,14.4551721592348,45.45));
#1290=CARTESIAN_POINT('',(-94.698594265565,14.4551721592348,-49.55));
#1291=CARTESIAN_POINT('',(-94.698594265565,14.4551721592348,45.45));
#1292=CARTESIAN_POINT('',(-94.698594265565,14.4551721592348,45.45));
#1293=CARTESIAN_POINT('',(-94.698594265565,14.4551721592348,-49.55));
#1294=CARTESIAN_POINT('Origin',(25.301405734435,14.4551721592348,-49.5500000000001));
#1295=CARTESIAN_POINT('',(25.301405734435,14.4551721592348,-49.55));
#1296=CARTESIAN_POINT('',(-94.698594265565,14.4551721592348,-49.55));
#1297=CARTESIAN_POINT('',(25.301405734435,14.4551721592348,-49.55));
#1298=CARTESIAN_POINT('Origin',(25.301405734435,14.4551721592348,45.45));
#1299=CARTESIAN_POINT('',(25.301405734435,14.4551721592348,45.4499999999999));
#1300=CARTESIAN_POINT('',(25.301405734435,14.4551721592348,-49.55));
#1301=CARTESIAN_POINT('',(25.301405734435,14.4551721592348,45.4499999999999));
#1302=CARTESIAN_POINT('Origin',(-94.698594265565,14.4551721592348,45.45));
#1303=CARTESIAN_POINT('',(25.301405734435,14.4551721592348,45.4499999999999));
#1304=CARTESIAN_POINT('Origin',(12.4799438730024,14.4551721592348,-36.1182474916654));
#1305=CARTESIAN_POINT('',(12.4799438730024,14.4551721592348,-36.1182474916654));
#1306=CARTESIAN_POINT('',(12.4799438730024,14.4551721592348,-20.3496534919206));
#1307=CARTESIAN_POINT('',(12.4799438730024,14.4551721592348,-36.1182474916654));
#1308=CARTESIAN_POINT('',(12.4799438730024,14.4551721592348,-20.3496534919206));
#1309=CARTESIAN_POINT('',(12.4799438730024,14.4551721592348,-36.1182474916654));
#1310=CARTESIAN_POINT('Origin',(-4.65407400292275,14.4551721592348,-36.1182474916654));
#1311=CARTESIAN_POINT('',(-4.65407400292275,14.4551721592348,-36.1182474916654));
#1312=CARTESIAN_POINT('',(-4.65407400292275,14.4551721592348,-36.1182474916654));
#1313=CARTESIAN_POINT('',(-4.65407400292275,14.4551721592348,-36.1182474916654));
#1314=CARTESIAN_POINT('Origin',(-4.65407400292275,14.4551721592348,-20.3496534919206));
#1315=CARTESIAN_POINT('',(-4.65407400292275,14.4551721592348,-20.3496534919206));
#1316=CARTESIAN_POINT('',(-4.65407400292275,14.4551721592348,-20.3496534919206));
#1317=CARTESIAN_POINT('',(-4.65407400292275,14.4551721592348,-20.3496534919206));
#1318=CARTESIAN_POINT('Origin',(12.4799438730024,14.4551721592348,-20.3496534919206));
#1319=CARTESIAN_POINT('',(12.4799438730024,14.4551721592348,-20.3496534919206));
#1320=CARTESIAN_POINT('Origin',(10.301405734435,14.4551721592348,-14.55));
#1321=CARTESIAN_POINT('',(10.301405734435,14.4551721592348,-14.55));
#1322=CARTESIAN_POINT('',(10.301405734435,14.4551721592348,25.4499999999999));
#1323=CARTESIAN_POINT('',(10.301405734435,14.4551721592348,-14.55));
#1324=CARTESIAN_POINT('',(10.301405734435,14.4551721592348,25.4499999999999));
#1325=CARTESIAN_POINT('',(10.301405734435,14.4551721592348,-14.55));
#1326=CARTESIAN_POINT('Origin',(-49.698594265565,14.4551721592348,-14.55));
#1327=CARTESIAN_POINT('',(-49.698594265565,14.4551721592348,-14.55));
#1328=CARTESIAN_POINT('',(-49.698594265565,14.4551721592348,-14.55));
#1329=CARTESIAN_POINT('',(-49.698594265565,14.4551721592348,-14.55));
#1330=CARTESIAN_POINT('Origin',(-49.698594265565,14.4551721592348,25.45));
#1331=CARTESIAN_POINT('',(-49.698594265565,14.4551721592348,25.45));
#1332=CARTESIAN_POINT('',(-49.698594265565,14.4551721592348,25.45));
#1333=CARTESIAN_POINT('',(-49.698594265565,14.4551721592348,25.45));
#1334=CARTESIAN_POINT('Origin',(10.301405734435,14.4551721592348,25.4499999999999));
#1335=CARTESIAN_POINT('',(10.301405734435,14.4551721592348,25.4499999999999));
#1336=CARTESIAN_POINT('Origin',(-52.9329373224524,14.4551721592348,-39.55));
#1337=CARTESIAN_POINT('',(-52.9329373224524,14.4551721592348,12.7442436206479));
#1338=CARTESIAN_POINT('',(-52.9329373224524,14.4551721592348,12.7442436206479));
#1339=CARTESIAN_POINT('',(-52.9329373224524,14.4551721592348,12.7442436206479));
#1340=CARTESIAN_POINT('Origin',(-52.9329373224524,14.4551721592348,12.7442436206479));
#1341=CARTESIAN_POINT('',(-84.698594265565,14.4551721592348,23.1644060844002));
#1342=CARTESIAN_POINT('Origin',(-34.698594265565,14.4551721592348,-2.05000000000004));
#1343=CARTESIAN_POINT('Origin',(10.301405734435,14.4551721592348,-14.55));
#1344=CARTESIAN_POINT('',(10.301405734435,14.4551721592348,-14.55));
#1345=CARTESIAN_POINT('',(10.301405734435,14.4551721592348,25.4499999999999));
#1346=CARTESIAN_POINT('',(10.301405734435,14.4551721592348,-14.55));
#1347=CARTESIAN_POINT('',(10.301405734435,16.4551721592348,25.4499999999999));
#1348=CARTESIAN_POINT('',(10.301405734435,14.4551721592348,25.4499999999999));
#1349=CARTESIAN_POINT('',(10.301405734435,16.4551721592348,-14.55));
#1350=CARTESIAN_POINT('',(10.301405734435,16.4551721592348,-14.55));
#1351=CARTESIAN_POINT('',(10.301405734435,14.4551721592348,-14.55));
#1352=CARTESIAN_POINT('Origin',(-49.698594265565,14.4551721592348,-14.55));
#1353=CARTESIAN_POINT('',(-49.698594265565,14.4551721592348,-14.55));
#1354=CARTESIAN_POINT('',(-49.698594265565,14.4551721592348,-14.55));
#1355=CARTESIAN_POINT('',(-49.698594265565,16.4551721592348,-14.55));
#1356=CARTESIAN_POINT('',(-49.698594265565,16.4551721592348,-14.55));
#1357=CARTESIAN_POINT('',(-49.698594265565,14.4551721592348,-14.55));
#1358=CARTESIAN_POINT('Origin',(-49.698594265565,14.4551721592348,25.45));
#1359=CARTESIAN_POINT('',(-49.698594265565,14.4551721592348,25.45));
#1360=CARTESIAN_POINT('',(-49.698594265565,14.4551721592348,25.45));
#1361=CARTESIAN_POINT('',(-49.698594265565,16.4551721592348,25.45));
#1362=CARTESIAN_POINT('',(-49.698594265565,16.4551721592348,25.45));
#1363=CARTESIAN_POINT('',(-49.698594265565,14.4551721592348,25.45));
#1364=CARTESIAN_POINT('Origin',(10.301405734435,14.4551721592348,25.4499999999999));
#1365=CARTESIAN_POINT('',(10.301405734435,14.4551721592348,25.4499999999999));
#1366=CARTESIAN_POINT('',(10.301405734435,16.4551721592348,25.4499999999999));
#1367=CARTESIAN_POINT('Origin',(12.4799438730024,14.4551721592348,-36.1182474916654));
#1368=CARTESIAN_POINT('',(12.4799438730024,14.4551721592348,-36.1182474916654));
#1369=CARTESIAN_POINT('',(12.4799438730024,14.4551721592348,-20.3496534919206));
#1370=CARTESIAN_POINT('',(12.4799438730024,14.4551721592348,-36.1182474916654));
#1371=CARTESIAN_POINT('',(12.4799438730024,16.4551721592348,-20.3496534919206));
#1372=CARTESIAN_POINT('',(12.4799438730024,14.4551721592348,-20.3496534919206));
#1373=CARTESIAN_POINT('',(12.4799438730024,16.4551721592348,-36.1182474916654));
#1374=CARTESIAN_POINT('',(12.4799438730024,16.4551721592348,-36.1182474916654));
#1375=CARTESIAN_POINT('',(12.4799438730024,14.4551721592348,-36.1182474916654));
#1376=CARTESIAN_POINT('Origin',(-4.65407400292275,14.4551721592348,-36.1182474916654));
#1377=CARTESIAN_POINT('',(-4.65407400292275,14.4551721592348,-36.1182474916654));
#1378=CARTESIAN_POINT('',(-4.65407400292275,14.4551721592348,-36.1182474916654));
#1379=CARTESIAN_POINT('',(-4.65407400292275,16.4551721592348,-36.1182474916654));
#1380=CARTESIAN_POINT('',(-4.65407400292275,16.4551721592348,-36.1182474916654));
#1381=CARTESIAN_POINT('',(-4.65407400292275,14.4551721592348,-36.1182474916654));
#1382=CARTESIAN_POINT('Origin',(-4.65407400292275,14.4551721592348,-20.3496534919206));
#1383=CARTESIAN_POINT('',(-4.65407400292275,14.4551721592348,-20.3496534919206));
#1384=CARTESIAN_POINT('',(-4.65407400292275,14.4551721592348,-20.3496534919206));
#1385=CARTESIAN_POINT('',(-4.65407400292275,16.4551721592348,-20.3496534919206));
#1386=CARTESIAN_POINT('',(-4.65407400292275,16.4551721592348,-20.3496534919206));
#1387=CARTESIAN_POINT('',(-4.65407400292275,14.4551721592348,-20.3496534919206));
#1388=CARTESIAN_POINT('Origin',(12.4799438730024,14.4551721592348,-20.3496534919206));
#1389=CARTESIAN_POINT('',(12.4799438730024,14.4551721592348,-20.3496534919206));
#1390=CARTESIAN_POINT('',(12.4799438730024,16.4551721592348,-20.3496534919206));
#1391=CARTESIAN_POINT('Origin',(-52.9329373224524,14.4551721592348,-39.55));
#1392=CARTESIAN_POINT('',(-52.9329373224524,14.4551721592348,12.7442436206479));
#1393=CARTESIAN_POINT('',(-52.9329373224524,14.4551721592348,-39.55));
#1394=CARTESIAN_POINT('',(-52.9329373224524,14.4551721592348,12.7442436206479));
#1395=CARTESIAN_POINT('',(-52.9329373224524,16.4551721592348,12.7442436206479));
#1396=CARTESIAN_POINT('',(-52.9329373224524,14.4551721592348,12.7442436206479));
#1397=CARTESIAN_POINT('',(-52.9329373224524,16.4551721592348,-39.55));
#1398=CARTESIAN_POINT('',(-52.9329373224524,16.4551721592348,12.7442436206479));
#1399=CARTESIAN_POINT('',(-52.9329373224524,14.4551721592348,-39.55));
#1400=CARTESIAN_POINT('Origin',(15.301405734435,14.4551721592348,-39.55));
#1401=CARTESIAN_POINT('',(15.301405734435,14.4551721592348,-39.55));
#1402=CARTESIAN_POINT('',(-84.698594265565,14.4551721592348,-39.55));
#1403=CARTESIAN_POINT('',(15.301405734435,16.4551721592348,-39.55));
#1404=CARTESIAN_POINT('',(-84.698594265565,16.4551721592348,-39.55));
#1405=CARTESIAN_POINT('',(15.301405734435,14.4551721592348,-39.55));
#1406=CARTESIAN_POINT('Origin',(15.301405734435,14.4551721592348,35.45));
#1407=CARTESIAN_POINT('',(15.301405734435,14.4551721592348,35.45));
#1408=CARTESIAN_POINT('',(15.301405734435,14.4551721592348,-39.55));
#1409=CARTESIAN_POINT('',(15.301405734435,16.4551721592348,35.4499999999999));
#1410=CARTESIAN_POINT('',(15.301405734435,16.4551721592348,-39.55));
#1411=CARTESIAN_POINT('',(15.301405734435,14.4551721592348,35.45));
#1412=CARTESIAN_POINT('Origin',(-84.698594265565,14.4551721592348,35.45));
#1413=CARTESIAN_POINT('',(-84.698594265565,14.4551721592348,35.45));
#1414=CARTESIAN_POINT('',(15.301405734435,14.4551721592348,35.45));
#1415=CARTESIAN_POINT('',(-84.698594265565,16.4551721592348,35.45));
#1416=CARTESIAN_POINT('',(15.301405734435,16.4551721592348,35.45));
#1417=CARTESIAN_POINT('',(-84.698594265565,14.4551721592348,35.45));
#1418=CARTESIAN_POINT('Origin',(-84.698594265565,14.4551721592348,23.1644060844002));
#1419=CARTESIAN_POINT('',(-84.698594265565,14.4551721592348,23.1644060844002));
#1420=CARTESIAN_POINT('',(-84.698594265565,14.4551721592348,35.45));
#1421=CARTESIAN_POINT('',(-84.698594265565,16.4551721592348,23.1644060844002));
#1422=CARTESIAN_POINT('',(-84.698594265565,16.4551721592348,35.45));
#1423=CARTESIAN_POINT('',(-84.698594265565,14.4551721592348,23.1644060844002));
#1424=CARTESIAN_POINT('Origin',(-52.9329373224524,14.4551721592348,12.7442436206479));
#1425=CARTESIAN_POINT('',(-84.698594265565,14.4551721592348,23.1644060844002));
#1426=CARTESIAN_POINT('',(-84.698594265565,16.4551721592348,23.1644060844002));
#1427=CARTESIAN_POINT('Origin',(-34.698594265565,16.4551721592348,-2.05000000000004));
#1428=CARTESIAN_POINT('Origin',(-34.698594265565,14.4551721592348,-2.05000000000004));
#1429=UNCERTAINTY_MEASURE_WITH_UNIT(LENGTH_MEASURE(0.01),#1433,
'DISTANCE_ACCURACY_VALUE',
'Maximum model space distance between geometric entities at asserted c
onnectivities');
#1430=UNCERTAINTY_MEASURE_WITH_UNIT(LENGTH_MEASURE(0.01),#1433,
'DISTANCE_ACCURACY_VALUE',
'Maximum model space distance between geometric entities at asserted c
onnectivities');
#1431=(
GEOMETRIC_REPRESENTATION_CONTEXT(3)
GLOBAL_UNCERTAINTY_ASSIGNED_CONTEXT((#1429))
GLOBAL_UNIT_ASSIGNED_CONTEXT((#1433,#1435,#1436))
REPRESENTATION_CONTEXT('','3D')
);
#1432=(
GEOMETRIC_REPRESENTATION_CONTEXT(3)
GLOBAL_UNCERTAINTY_ASSIGNED_CONTEXT((#1430))
GLOBAL_UNIT_ASSIGNED_CONTEXT((#1433,#1435,#1436))
REPRESENTATION_CONTEXT('','3D')
);
#1433=(
LENGTH_UNIT()
NAMED_UNIT(*)
SI_UNIT(.MILLI.,.METRE.)
);
#1434=(
LENGTH_UNIT()
NAMED_UNIT(*)
SI_UNIT($,.METRE.)
);
#1435=(
NAMED_UNIT(*)
PLANE_ANGLE_UNIT()
SI_UNIT($,.RADIAN.)
);
#1436=(
NAMED_UNIT(*)
SI_UNIT($,.STERADIAN.)
SOLID_ANGLE_UNIT()
);
#1437=SHAPE_DEFINITION_REPRESENTATION(#1438,#1439);
#1438=PRODUCT_DEFINITION_SHAPE('',$,#1441);
#1439=SHAPE_REPRESENTATION('',(#917),#1431);
#1440=PRODUCT_DEFINITION_CONTEXT('part definition',#1445,'design');
#1441=PRODUCT_DEFINITION('2026-09-19-16-30-48-578','External2',#1442,#1440);
#1442=PRODUCT_DEFINITION_FORMATION('',$,#1447);
#1443=PRODUCT_RELATED_PRODUCT_CATEGORY('External2','External2',(#1447));
#1444=APPLICATION_PROTOCOL_DEFINITION('international standard',
'automotive_design',2009,#1445);
#1445=APPLICATION_CONTEXT(
'Core Data for Automotive Mechanical Design Process');
#1446=PRODUCT_CONTEXT('part definition',#1445,'mechanical');
#1447=PRODUCT('2026-09-19-16-30-48-578','External2',$,(#1446));
#1448=PRESENTATION_STYLE_ASSIGNMENT((#1449));
#1449=SURFACE_STYLE_USAGE(.BOTH.,#1450);
#1450=SURFACE_SIDE_STYLE('',(#1451));
#1451=SURFACE_STYLE_FILL_AREA(#1452);
#1452=FILL_AREA_STYLE('Paint - Enamel Glossy (White)',(#1453));
#1453=FILL_AREA_STYLE_COLOUR('Paint - Enamel Glossy (White)',#1454);
#1454=COLOUR_RGB('Paint - Enamel Glossy (White)',0.96078431372549,0.0313725490196078,
0.0313725490196078);
ENDSEC;
END-ISO-10303-21;
